<svg width="29" height="29" viewBox="0 0 29 29" fill="none" xmlns="http://www.w3.org/2000/svg">
<path d="M6.80905 5.64535C7.72611 5.64535 8.49644 4.87502 8.49644 3.95796C8.49644 3.04091 7.72611 2.27058 6.80905 2.27058C5.89199 2.27058 5.12167 3.04091 5.12167 3.95796C5.12167 4.87502 5.89199 5.64535 6.80905 5.64535ZM5.89199 17.5671C5.89199 17.8239 6.11209 18.044 6.36886 18.044C6.62564 18.044 6.84574 17.8239 6.84574 17.5671C6.84574 17.3103 6.62564 17.0902 6.36886 17.0902C6.11209 17.0902 5.89199 17.3103 5.89199 17.5671ZM9.26677 7.77292C9.67027 7.77292 9.96373 7.44278 9.96373 7.07596C9.96373 6.67245 9.63359 6.379 9.26677 6.379C8.86326 6.379 8.5698 6.70914 8.5698 7.07596C8.5698 7.44278 8.86326 7.77292 9.26677 7.77292ZM3.72774 14.119C4.6448 14.119 5.41513 13.3486 5.41513 12.4316C5.41513 11.5145 4.6448 10.7442 3.72774 10.7442C2.81068 10.7442 2.04035 11.5145 2.04035 12.4316C2.07704 13.3486 2.81068 14.119 3.72774 14.119ZM1.30671 10.1573C1.71021 10.1573 2.00367 9.82713 2.00367 9.46031C2.00367 9.0568 1.67353 8.76335 1.30671 8.76335C0.903202 8.76335 0.609744 9.09349 0.609744 9.46031C0.609744 9.86382 0.903202 10.1573 1.30671 10.1573ZM1.04993 11.6979C1.04993 11.4412 0.829838 11.2211 0.573061 11.2211C0.316285 11.2211 0.0961914 11.4412 0.0961914 11.6979C0.0961914 11.9547 0.316285 12.1748 0.573061 12.1748C0.829838 12.1748 1.04993 11.9547 1.04993 11.6979ZM3.28755 7.73624C3.94783 7.73624 4.46139 7.22269 4.46139 6.56241C4.46139 5.90213 3.94783 5.38857 3.28755 5.38857C2.62727 5.38857 2.11372 5.90213 2.11372 6.56241C2.11372 7.22269 2.62727 7.73624 3.28755 7.73624ZM17.557 1.28016C17.8137 1.28016 18.0338 1.06006 18.0338 0.803286C18.0338 0.54651 17.8137 0.326416 17.557 0.326416C17.3002 0.326416 17.0801 0.54651 17.0801 0.803286C17.0801 1.06006 17.3002 1.28016 17.557 1.28016ZM4.71816 17.3837C4.71816 16.2465 3.8011 15.3295 2.66395 15.3295C1.5268 15.3295 0.609744 16.2465 0.609744 17.3837C0.609744 18.5208 1.5268 19.4379 2.66395 19.4379C3.8011 19.4379 4.71816 18.5208 4.71816 17.3837ZM25.2969 8.72666C26.214 8.72666 26.9843 7.95633 26.9843 7.03928C26.9843 6.12222 26.214 5.35189 25.2969 5.35189C24.3799 5.35189 23.6095 6.12222 23.6095 7.03928C23.6095 7.95633 24.3432 8.72666 25.2969 8.72666ZM21.5187 20.3183C21.5187 20.9786 22.0322 21.4921 22.6925 21.4921C23.3528 21.4921 23.8663 20.9786 23.8663 20.3183C23.8663 19.658 23.3528 19.1444 22.6925 19.1444C22.0322 19.1444 21.5187 19.658 21.5187 20.3183ZM22.6925 4.69161C23.3528 4.69161 23.8663 4.17806 23.8663 3.51778C23.8663 2.8575 23.3528 2.34394 22.6925 2.34394C22.0322 2.34394 21.5187 2.8575 21.5187 3.51778C21.5187 4.17806 22.0322 4.69161 22.6925 4.69161ZM20.088 7.73624C20.7483 7.73624 21.2619 7.22269 21.2619 6.56241C21.2619 5.90213 20.7483 5.38857 20.088 5.38857C19.4278 5.38857 18.9142 5.90213 18.9142 6.56241C18.9142 7.22269 19.4278 7.73624 20.088 7.73624ZM24.3065 11.8813C24.3065 13.0185 25.2236 13.9355 26.3607 13.9355C27.4979 13.9355 28.4149 13.0185 28.4149 11.8813C28.4149 10.7442 27.4979 9.82713 26.3607 9.82713C25.2236 9.82713 24.3065 10.7442 24.3065 11.8813ZM23.1327 11.6979C23.1327 11.4412 22.9126 11.2211 22.6558 11.2211C22.399 11.2211 22.1789 11.4412 22.1789 11.6979C22.1789 11.9547 22.399 12.1748 22.6558 12.1748C22.9126 12.1748 23.1327 11.9547 23.1327 11.6979ZM19.7579 2.19721C20.1614 2.19721 20.4549 1.86707 20.4549 1.50025C20.4549 1.13343 20.1247 0.803286 19.7579 0.803286C19.3544 0.803286 19.0609 1.13343 19.0609 1.50025C19.0609 1.86707 19.3911 2.19721 19.7579 2.19721ZM21.9588 10.1573C22.3623 10.1573 22.6558 9.82713 22.6558 9.46031C22.6558 9.0568 22.3257 8.76335 21.9588 8.76335C21.592 8.76335 21.2619 9.09349 21.2619 9.46031C21.2619 9.86382 21.592 10.1573 21.9588 10.1573ZM7.50602 8.94676C7.50602 8.28648 6.99246 7.77292 6.33218 7.77292C5.6719 7.77292 5.15835 8.28648 5.15835 8.94676C5.15835 9.60704 5.6719 10.1206 6.33218 10.1206C6.99246 10.1206 7.50602 9.60704 7.50602 8.94676ZM19.7579 21.4921C19.3544 21.4921 19.0609 21.8222 19.0609 22.1891C19.0609 22.5926 19.3911 22.886 19.7579 22.886C20.1614 22.886 20.4549 22.5559 20.4549 22.1891C20.4549 21.8222 20.1614 21.4921 19.7579 21.4921ZM17.3736 24.3166C16.2364 24.3166 15.3193 25.2337 15.3193 26.3708C15.3193 27.508 16.2364 28.4251 17.3736 28.4251C18.5107 28.4251 19.4278 27.508 19.4278 26.3708C19.4278 25.2337 18.5107 24.3166 17.3736 24.3166ZM22.2156 23.6197C21.2986 23.6197 20.5282 24.39 20.5282 25.3071C20.5282 26.2241 21.2986 26.9944 22.2156 26.9944C23.1327 26.9944 23.903 26.2241 23.903 25.3071C23.903 24.39 23.1327 23.6197 22.2156 23.6197ZM17.0801 22.886C17.0801 23.1428 17.3002 23.3629 17.557 23.3629C17.8137 23.3629 18.0338 23.1428 18.0338 22.886C18.0338 22.6293 17.8137 22.4092 17.557 22.4092C17.3002 22.4458 17.0801 22.6293 17.0801 22.886ZM28.4516 17.0902C28.1948 17.0902 27.9747 17.3103 27.9747 17.5671C27.9747 17.8239 28.1948 18.044 28.4516 18.044C28.7084 18.044 28.9285 17.8239 28.9285 17.5671C28.9285 17.3103 28.6717 17.0902 28.4516 17.0902ZM27.718 19.1078C27.3145 19.1078 27.021 19.4379 27.021 19.8047C27.021 20.2082 27.3511 20.5017 27.718 20.5017C28.1215 20.5017 28.4149 20.1715 28.4149 19.8047C28.4149 19.4012 28.1215 19.1078 27.718 19.1078ZM16.6032 5.64535C17.5203 5.64535 18.2906 4.87502 18.2906 3.95796C18.2906 3.04091 17.5203 2.27058 16.6032 2.27058C15.6862 2.27058 14.9158 3.04091 14.9158 3.95796C14.9158 4.87502 15.6862 5.64535 16.6032 5.64535ZM25.2969 15.1461C24.3799 15.1461 23.6095 15.9164 23.6095 16.8335C23.6095 17.7505 24.3799 18.5208 25.2969 18.5208C26.214 18.5208 26.9843 17.7505 26.9843 16.8335C26.9476 15.9164 26.214 15.1461 25.2969 15.1461ZM3.72774 20.5384C2.81068 20.5384 2.04035 21.3087 2.04035 22.2257C2.04035 23.1428 2.81068 23.9131 3.72774 23.9131C4.6448 23.9131 5.41513 23.1428 5.41513 22.2257C5.41513 21.3087 4.68148 20.5384 3.72774 20.5384ZM25.7371 21.5288C25.0768 21.5288 24.5633 22.0423 24.5633 22.7026C24.5633 23.3629 25.0768 23.8765 25.7371 23.8765C26.3974 23.8765 26.911 23.3629 26.911 22.7026C26.911 22.0423 26.3974 21.5288 25.7371 21.5288ZM7.06583 19.1078C6.66232 19.1078 6.36886 19.4379 6.36886 19.8047C6.36886 20.2082 6.69901 20.5017 7.06583 20.5017C7.43265 20.5017 7.76279 20.1715 7.76279 19.8047C7.76279 19.4012 7.43265 19.1078 7.06583 19.1078ZM8.93663 21.5288C8.27634 21.5288 7.76279 22.0423 7.76279 22.7026C7.76279 23.3629 8.27634 23.8765 8.93663 23.8765C9.59691 23.8765 10.1105 23.3629 10.1105 22.7026C10.1105 22.0423 9.59691 21.5288 8.93663 21.5288ZM9.26677 27.0678C8.86326 27.0678 8.5698 27.398 8.5698 27.7648C8.5698 28.1316 8.89994 28.4617 9.26677 28.4617C9.67027 28.4617 9.96373 28.1316 9.96373 27.7648C9.96373 27.398 9.63359 27.0678 9.26677 27.0678ZM6.33218 24.5734C5.6719 24.5734 5.15835 25.087 5.15835 25.7473C5.15835 26.4075 5.6719 26.9211 6.33218 26.9211C6.99246 26.9211 7.50602 26.4075 7.50602 25.7473C7.50602 25.087 6.99246 24.5734 6.33218 24.5734ZM11.0275 6.379C11.0275 6.63577 11.2476 6.85587 11.5044 6.85587C11.7612 6.85587 11.9813 6.63577 11.9813 6.379C11.9813 6.12222 11.7612 5.90213 11.5044 5.90213C11.2109 5.90213 11.0275 6.12222 11.0275 6.379ZM13.7053 2.85749C13.7053 1.72034 12.7883 0.803286 11.6511 0.803286C10.514 0.803286 9.59691 1.72034 9.59691 2.85749C9.59691 3.99465 10.514 4.9117 11.6511 4.9117C12.7883 4.94839 13.7053 4.03133 13.7053 2.85749ZM11.4677 27.9849C11.2109 27.9849 10.9908 28.205 10.9908 28.4617C10.9908 28.7185 11.2109 28.9386 11.4677 28.9386C11.7245 28.9386 11.9446 28.7185 11.9446 28.4617C11.9446 28.205 11.7245 27.9849 11.4677 27.9849ZM12.4214 23.6197C11.5044 23.6197 10.7341 24.39 10.7341 25.3071C10.7341 26.2241 11.5044 26.9944 12.4214 26.9944C13.3385 26.9944 14.1088 26.2241 14.1088 25.3071C14.1088 24.39 13.3385 23.6197 12.4214 23.6197Z" fill="#0141FF"/>
</svg>
