<svg width="93" height="35" viewBox="0 0 93 35" fill="none" xmlns="http://www.w3.org/2000/svg">
<g clip-path="url(#clip0_886_151)">
<path d="M37.1817 3.57427H9.33022C7.79133 3.57427 6.31547 4.18559 5.22731 5.27375C4.13915 6.3619 3.52783 7.83776 3.52783 9.37665V25.6233C3.52783 27.1622 4.13915 28.6381 5.22731 29.7262C6.31547 30.8144 7.79133 31.4257 9.33022 31.4257H41.8236C42.5856 31.4257 43.3401 31.2756 44.0441 30.984C44.748 30.6924 45.3877 30.265 45.9265 29.7262C46.4653 29.1874 46.8927 28.5478 47.1843 27.8438C47.4759 27.1398 47.626 26.3853 47.626 25.6233V9.37665C47.6259 8.20236 47.9822 7.05569 48.6477 6.08816C49.3131 5.12064 50.2565 4.3778 51.3531 3.95781C52.4498 3.53783 53.648 3.46046 54.7895 3.73593C55.931 4.0114 56.9621 4.62675 57.7465 5.50066L79.2826 29.4993C80.067 30.3732 81.0981 30.9886 82.2396 31.2641C83.3811 31.5395 84.5794 31.4622 85.676 31.0422C86.7726 30.6222 87.716 29.8793 88.3815 28.9118C89.047 27.9443 89.4032 26.7976 89.4032 25.6233V0.0928345" stroke="#525C65" stroke-width="10"/>
</g>
<defs>
<clipPath id="clip0_886_151">
<rect width="92.931" height="35" fill="white"/>
</clipPath>
</defs>
</svg>
