<svg width="160" height="24" viewBox="0 0 160 24" fill="none" xmlns="http://www.w3.org/2000/svg">
<g clip-path="url(#clip0_886_134)">
<path d="M5.76609 21.5262C3.97605 20.5897 2.6072 19.1329 1.55423 17.3639C0.606561 15.595 0.0800781 13.6179 0.0800781 11.5367C0.0800781 9.55961 0.606561 7.47845 1.55423 5.81353C2.5019 4.04454 3.97605 2.69179 5.76609 1.65121C7.66143 0.610637 9.76736 0.0903482 11.8733 0.0903482C14.4004 -0.0137096 16.8222 0.818753 18.9282 2.1715L16.6116 5.70947C15.2428 4.66889 13.6633 4.04454 11.8733 4.04454C10.5044 4.04454 9.13558 4.35672 7.97732 5.08512C6.92435 5.70947 5.97669 6.75005 5.4502 7.89468C4.81842 9.03932 4.50253 10.3921 4.60783 11.7448C4.60783 13.0976 4.92372 14.3463 5.4502 15.4909C6.71376 17.8842 9.13558 19.341 11.8733 19.341C13.558 19.341 15.2428 18.7167 16.6116 17.6761L18.9282 21.006C16.8222 22.4628 14.4004 23.1912 11.8733 23.1912C9.76736 23.0871 7.66143 22.5668 5.76609 21.5262Z" fill="#525C65"/>
<path d="M29.1417 4.25269V9.97587H37.2495V13.3057H29.1417V19.0289H38.9343V22.5669H24.7192V0.714722H38.829V4.25269H29.1417Z" fill="#525C65"/>
<path d="M51.1489 13.7219H49.78V22.5669H45.4629V0.714722H53.3601C54.6237 0.714722 55.9925 0.922837 57.1508 1.44313C58.3091 1.96342 59.2567 2.69182 59.9938 3.7324C60.7309 4.77298 61.1521 6.02167 61.0468 7.27036C61.1521 8.72717 60.6256 10.184 59.5726 11.2246C58.5197 12.2651 57.1508 13.0976 55.6766 13.4098L62.9421 22.5669H57.6773L51.1489 13.7219ZM49.78 10.4962H52.4125C53.7813 10.4962 54.729 10.184 55.4661 9.66369C56.2031 9.1434 56.6243 8.20689 56.519 7.37442C56.519 6.4379 56.2031 5.50138 55.4661 4.98109C54.729 4.35675 53.676 4.14863 52.3072 4.14863H49.8853L49.78 10.4962Z" fill="#525C65"/>
<path d="M71.8924 22.5669H67.5752V0.714722H71.8924V22.5669Z" fill="#525C65"/>
<path d="M93.0569 2.17148C94.7417 3.00394 96.2158 4.35669 97.1635 6.02162C98.1112 7.68654 98.6377 9.66364 98.5324 11.6407C98.5324 13.6178 98.1112 15.5949 97.1635 17.2599C96.2158 18.9248 94.7417 20.2775 93.0569 21.2141C91.0563 22.1506 88.8451 22.6709 86.6338 22.6709H79.4736V0.818729H86.6338C88.8451 0.714671 91.0563 1.1309 93.0569 2.17148ZM92.004 17.0517C93.3728 15.8031 94.1099 13.93 94.1099 11.5367C94.1099 9.24741 93.3728 7.47843 92.004 6.12568C90.6351 4.87698 88.6345 4.14858 86.1073 4.14858H83.7908V18.9248H86.1073C88.7398 19.0288 90.6351 18.4045 92.004 17.0517Z" fill="#525C65"/>
<path d="M108.746 22.5669H104.429V0.714722H108.746V22.5669Z" fill="#525C65"/>
<path d="M129.069 17.5721H120.118L118.328 22.5669H113.59L122.33 0.714722H126.752L135.492 22.5669H130.753L129.069 17.5721ZM127.805 14.2422L124.541 5.18921L121.277 14.2422H127.805Z" fill="#525C65"/>
<path d="M159.92 0.714722V22.5669H155.919L145.074 7.47848V22.5669H140.862V0.714722H144.863L155.603 15.8031V0.714722H159.92Z" fill="#525C65"/>
</g>
<defs>
<clipPath id="clip0_886_134">
<rect width="160" height="23.2727" fill="white"/>
</clipPath>
</defs>
</svg>
