<svg width="160" height="31" viewBox="0 0 160 31" fill="none" xmlns="http://www.w3.org/2000/svg">
<g clip-path="url(#clip0_886_144)">
<path d="M151.448 25.7718C151.448 23.4329 153.347 21.5354 155.685 21.5354C158.024 21.5354 159.92 23.4329 159.92 25.7718C159.92 28.1107 158.024 30.0071 155.685 30.0071C153.347 30.0071 151.448 28.1107 151.448 25.7718Z" fill="#525C65"/>
<path d="M16.3397 14.5523C16.3397 11.8691 15.8211 9.87832 14.7839 8.58149C13.7457 7.28556 12.1729 6.63831 10.0583 6.63831H7.80894V23.0473H9.52999C11.8788 23.0473 13.5999 22.3512 14.6957 20.9537C15.7904 19.5588 16.3395 17.4246 16.3395 14.5523H16.3397ZM24.3614 14.2728C24.3614 19.1615 23.0472 22.9286 20.4191 25.5726C17.791 28.2179 14.0963 29.5405 9.33385 29.5405H0.0800781V0.247066H9.97983C14.5719 0.247066 18.117 1.44971 20.6151 3.85355C23.1124 6.25866 24.3614 9.73018 24.3614 14.273V14.2728ZM49.9944 29.5402H57.3581V0.124185H49.9944V29.5402ZM67.7024 18.5679C67.7024 20.4434 67.9476 21.8739 68.4368 22.857C68.9271 23.8414 69.7483 24.333 70.9031 24.333C72.0455 24.333 72.8535 23.8414 73.3241 22.857C73.7949 21.8739 74.0289 20.4434 74.0289 18.5679C74.0289 16.7021 73.7911 15.2948 73.3143 14.3448C72.8362 13.3924 72.0211 12.9155 70.8652 12.9155C69.7349 12.9155 68.9273 13.3901 68.4368 14.3338C67.9476 15.2789 67.7024 16.6898 67.7024 18.5679ZM81.5237 18.5679C81.5237 22.1411 80.5872 24.9286 78.7092 26.9268C76.8326 28.9261 74.2054 29.9265 70.8284 29.9265C67.5897 29.9265 65.0117 28.9041 63.0983 26.8593C61.1823 24.8147 60.2249 22.0516 60.2249 18.5679C60.2249 15.0056 61.1627 12.2376 63.0407 10.2639C64.9186 8.29044 67.5518 7.3036 70.9423 7.3036C73.0372 7.3036 74.8907 7.76084 76.4966 8.67424C78.1036 9.58727 79.3442 10.8955 80.2157 12.5992C81.0885 14.3008 81.5237 16.2914 81.5237 18.5679ZM84.448 29.5403H91.8129V7.68993H84.448V29.5403ZM84.4478 5.047H91.8125V0.122742H84.4478V5.047ZM106.733 23.9672C107.728 23.9672 108.912 23.7146 110.293 23.2133V28.711C109.3 29.1475 108.356 29.46 107.459 29.6452C106.562 29.8328 105.509 29.9259 104.304 29.9259C101.831 29.9259 100.049 29.3045 98.9544 28.0638C97.8645 26.8232 97.3178 24.9183 97.3178 22.3477V13.3405H94.7387V7.69173H97.318V2.11175L104.739 0.821051V7.69173H109.438V13.3405H104.739V21.8452C104.739 23.2599 105.405 23.9672 106.733 23.9672ZM123.778 23.9672C124.773 23.9672 125.957 23.7146 127.338 23.2133V28.711C126.347 29.1475 125.401 29.46 124.504 29.6452C123.605 29.8328 122.556 29.9259 121.349 29.9259C118.876 29.9259 117.094 29.3045 116.002 28.0638C114.909 26.8232 114.363 24.9183 114.363 22.3477V13.3405H111.782V7.69173H114.363V2.02712L121.783 0.821051V7.69173H126.484V13.3405H121.783V21.8452C121.783 23.2599 122.448 23.9672 123.778 23.9672ZM136.631 15.906C136.731 14.7097 137.073 13.8331 137.657 13.2728C138.243 12.7138 138.966 12.4345 139.831 12.4345C140.775 12.4345 141.525 12.7482 142.082 13.3807C142.642 14.0095 142.934 14.8517 142.957 15.906H136.631ZM147.016 9.87977C145.265 8.16359 142.782 7.30432 139.569 7.30432C136.192 7.30432 133.593 8.29116 131.772 10.2646C129.951 12.2383 129.04 15.0698 129.04 18.7598C129.04 22.333 130.025 25.0887 131.989 27.023C133.954 28.9573 136.713 29.9258 140.267 29.9258C141.973 29.9258 143.441 29.8094 144.672 29.5775C145.896 29.3483 147.08 28.9341 148.228 28.3359L147.097 23.4116C146.262 23.7525 145.468 24.0148 144.718 24.1875C143.634 24.4389 142.445 24.5652 141.15 24.5652C139.731 24.5652 138.61 24.2184 137.789 23.5244C136.968 22.8293 136.53 21.8708 136.48 20.65H149.643V17.2948C149.643 14.0673 148.768 11.5947 147.016 9.87977ZM34.1348 15.906C34.2354 14.7097 34.5773 13.8331 35.1608 13.2728C35.7455 12.7138 36.4699 12.4345 37.3366 12.4345C38.2781 12.4345 39.0282 12.7482 39.5862 13.3807C40.1463 14.0095 40.4368 14.8517 40.4626 15.906H34.1348ZM44.5211 9.87977C42.7695 8.16359 40.2872 7.30432 37.0732 7.30432C33.6946 7.30432 31.0971 8.29116 29.2768 10.2646C27.4565 12.2383 26.5444 15.0698 26.5444 18.7598C26.5444 22.333 27.5276 25.0887 29.4937 27.023C31.4576 28.9573 34.2169 29.9258 37.7706 29.9258C39.477 29.9258 40.9454 29.8094 42.1762 29.5775C43.3996 29.3483 44.5837 28.9341 45.7336 28.3359L44.601 23.4116C43.7661 23.7525 42.9716 24.0148 42.2228 24.1875C41.1367 24.4389 39.9489 24.5652 38.6544 24.5652C37.2361 24.5652 36.1145 24.2184 35.2933 23.5244C34.4706 22.8293 34.0343 21.8708 33.984 20.65H47.147V17.2948C47.147 14.0673 46.2717 11.5947 44.5213 9.87977" fill="#525C65"/>
</g>
<defs>
<clipPath id="clip0_886_144">
<rect width="160" height="30.1299" fill="white"/>
</clipPath>
</defs>
</svg>
