<svg width="160" height="36" viewBox="0 0 160 36" fill="none" xmlns="http://www.w3.org/2000/svg">
<g clip-path="url(#clip0_886_123)">
<path fill-rule="evenodd" clip-rule="evenodd" d="M142.55 24.2614C142.417 25.4634 142.35 26.0635 141.95 26.9998C143.082 27.8674 144.547 28.8037 147.078 28.8037C151.873 28.8037 154.736 25.5953 154.736 21.7906C154.736 14.913 144.945 17.317 144.945 11.5076C144.945 9.23739 146.61 7.63411 148.941 7.63411C151.273 7.63411 152.203 9.37116 152.67 10.5732H153.002C153.27 9.37116 153.469 8.63732 153.868 7.90163C152.601 6.96716 151.204 6.50085 149.272 6.50085C145.142 6.50085 142.48 8.90299 142.48 12.3771C142.48 19.7228 152.27 17.2519 152.27 22.9944C152.27 25.4653 150.606 27.4698 147.875 27.4698C145.211 27.4698 143.613 25.7309 142.948 24.2633H142.55V24.2614ZM157.468 7.76787H158.002C158.135 7.76787 158.269 7.76788 158.334 7.83476C158.401 7.90164 158.401 7.96851 158.401 8.03539C158.401 8.10227 158.401 8.16916 158.334 8.16916C158.334 8.23419 158.267 8.30107 158.2 8.30107C158.134 8.30107 158.067 8.36794 157.935 8.36794H157.468V7.76787ZM157.468 9.37115V8.56858H157.868C157.868 8.56858 157.935 8.56859 158.002 8.63547L158.069 8.70234C158.135 8.76922 158.202 8.90114 158.269 8.96987L158.535 9.37115H158.802L158.47 8.83797L158.271 8.63733C158.271 8.57045 158.204 8.57045 158.137 8.50542C158.336 8.50542 158.47 8.43855 158.537 8.37167C158.621 8.28032 158.668 8.16134 158.67 8.03726C158.67 7.97038 158.604 7.83661 158.604 7.76973L158.405 7.56908H157.206V9.37301H157.468V9.37115Z" fill="#525C65"/>
<path d="M157.868 10.3725C158.932 10.3725 159.8 9.50496 159.8 8.5036C159.8 7.43537 158.934 6.56592 157.868 6.56592C156.801 6.56592 155.938 7.43537 155.938 8.5036C155.936 9.50496 156.801 10.3725 157.868 10.3725Z" stroke="#525C65" stroke-width="1.93249" stroke-miterlimit="2.613"/>
<path fill-rule="evenodd" clip-rule="evenodd" d="M61.7734 14.9799C61.7734 12.7096 61.9072 10.4394 61.9722 8.16916C62.6373 8.10228 63.5699 8.03538 64.9689 8.03538C67.0997 8.03538 69.8307 8.83796 69.8307 12.1077C69.8307 15.8474 66.4347 16.9157 63.8356 16.9157C63.0367 16.9157 62.3716 16.8488 61.7716 16.7169V14.9799H61.7734ZM59.2431 20.321C59.2431 22.9925 59.1093 25.7309 58.9774 28.4006C59.5106 28.3356 59.9769 28.2668 60.5083 28.2668C60.9746 28.2668 61.5078 28.3356 62.0391 28.4006C61.9072 25.7291 61.7734 22.9925 61.7734 20.321V18.0508H62.9717C65.6358 20.7892 69.7638 26.4666 71.029 28.4006C71.6291 28.3356 72.2273 28.2668 72.8274 28.2668C73.4274 28.2668 74.0925 28.3356 74.6907 28.4006C72.8924 26.3979 67.698 19.6541 66.1671 17.7851C68.4968 17.4507 72.5598 15.8493 72.5598 11.7751C72.5598 8.10227 69.5632 6.90027 66.1003 6.90027C64.9001 6.90027 63.7018 7.03404 62.5035 7.03404C61.3721 7.03404 60.1739 6.96715 58.9756 6.90027C59.1075 9.57178 59.2412 12.2415 59.2412 14.9817V20.321H59.2431Z" fill="#525C65"/>
<path fill-rule="evenodd" clip-rule="evenodd" d="M93.6717 17.6514C93.6717 24.529 89.8762 27.6686 85.0143 27.6686C80.1525 27.6686 76.4239 24.529 76.4239 17.6514C76.4239 10.7069 80.1525 7.63414 85.0143 7.63414C89.8762 7.63414 93.6717 10.7069 93.6717 17.6514ZM73.3604 17.6514C73.3604 24.7296 78.1553 28.8038 85.0143 28.8038C91.8733 28.8038 96.6683 24.7296 96.6683 17.6514C96.6683 10.5732 91.8733 6.50088 85.0143 6.50088C78.1553 6.50088 73.3604 10.5732 73.3604 17.6514ZM116.513 28.8038C116.446 27.3993 116.381 20.5217 116.381 17.317C116.381 14.913 116.714 8.70237 116.913 6.9003C116.513 6.96718 116.248 7.03407 115.915 7.03407C115.581 7.03407 115.181 6.96718 114.849 6.9003C115.114 11.7083 115.114 17.7852 115.114 23.327C111.319 19.5203 104.393 11.9758 99.3324 6.49902H98.8679C98.9348 7.8998 98.9348 10.9057 98.9348 14.8461C98.9348 18.9184 98.5354 26.9311 98.2697 28.4006C98.6692 28.3356 99.0686 28.2669 99.468 28.2669C99.8006 28.2669 100.202 28.3356 100.534 28.4006C100.401 27.1336 100.267 20.5886 100.267 17.9171C100.267 14.5786 100.334 12.7097 100.334 11.5727C105.66 17.2483 111.321 23.1913 116.049 28.8019H116.513V28.8038ZM138.422 17.6514C138.422 24.529 134.694 27.6686 129.832 27.6686C124.97 27.6686 121.241 24.529 121.241 17.6514C121.241 10.7069 124.97 7.63414 129.832 7.63414C134.694 7.63414 138.422 10.7069 138.422 17.6514ZM118.178 17.6514C118.178 24.7296 122.973 28.8038 129.83 28.8038C136.689 28.8038 141.484 24.7296 141.484 17.6514C141.484 10.5732 136.689 6.50088 129.83 6.50088C122.973 6.49902 118.178 10.5732 118.178 17.6514Z" fill="#525C65"/>
<path fill-rule="evenodd" clip-rule="evenodd" d="M0.308147 14.2461H15.2244C15.5588 14.2461 19.4862 14.4467 21.0858 12.1765C22.7504 9.90624 27.4785 3.22931 27.4785 3.22931C27.8129 3.42995 27.8129 3.49683 28.0785 3.69562C28.0785 3.69562 20.1532 14.7811 20.1532 14.8461C18.7561 16.7169 16.4914 17.1832 14.6931 17.1832H0.0424805C0.0424805 16.3825 0.109362 15.2474 0.308147 14.2461ZM34.8707 17.5845C34.8707 21.9931 33.3398 26.0654 30.4751 29.0695L24.0824 20.1892C23.4842 19.3885 22.4178 18.0527 20.6863 17.5845C22.4178 17.0513 23.4842 15.7156 24.0824 14.9818L30.4751 6.03459C33.3398 9.03679 34.8707 13.1091 34.8707 17.5845Z" fill="#525C65"/>
<path fill-rule="evenodd" clip-rule="evenodd" d="M1.4414 10.5732H14.2268C17.556 10.5732 18.156 9.63871 19.0218 8.70424C19.0887 8.70424 24.2162 1.42538 24.2162 1.42538C24.2162 1.42538 24.5487 1.55914 24.9482 1.75979C24.9482 1.75979 21.9515 6.03459 18.091 11.3758C17.4909 12.1783 16.3595 13.5122 14.1618 13.5122H0.508789C0.774455 12.3753 1.17574 11.3739 1.4414 10.5732ZM4.30428 6.0996H11.4958C12.761 6.0996 13.493 4.89762 13.9593 4.43131C13.9593 4.49819 17.0897 0.0914917 17.0897 0.0914917C14.6535 0.12405 12.2524 0.67695 10.0474 1.71315C7.84229 2.74936 5.88419 4.24492 4.30428 6.0996Z" fill="#525C65"/>
<path fill-rule="evenodd" clip-rule="evenodd" d="M3.63732 6.90028H13.4279C15.7576 6.96716 17.1565 4.96445 17.1565 4.96445L20.4857 0.357117L21.3514 0.490876C21.3514 0.490876 16.4246 7.36845 16.3577 7.43533C15.2913 9.10363 14.1599 9.70557 12.761 9.77245H1.83897C2.04147 9.2374 2.83847 7.90163 3.63732 6.90028ZM0.308147 20.8561H15.2244C15.5588 20.8561 19.4862 20.7223 21.0858 22.9257C22.7504 25.1978 27.4785 31.8728 27.4785 31.8728C27.8129 31.674 27.8129 31.6034 28.0785 31.4047C28.0785 31.4047 20.1532 20.321 20.1532 20.2541C18.7561 18.3852 16.4914 17.917 14.6931 17.917H0.0424805C0.0424805 18.7196 0.109362 19.8547 0.308147 20.8561Z" fill="#525C65"/>
<path fill-rule="evenodd" clip-rule="evenodd" d="M1.44101 24.5289H14.2264C17.5556 24.5289 18.1556 25.4634 19.0214 26.3979C19.0882 26.3979 24.2158 33.6767 24.2158 33.6767C24.2158 33.6767 24.5483 33.543 24.9477 33.3423C24.9477 33.3423 21.9511 29.0676 18.0906 23.7264C17.4905 22.9238 16.3591 21.5899 14.1614 21.5899C14.1614 21.6568 0.510254 21.5899 0.510254 21.5899C0.774061 22.725 1.17535 23.7282 1.44101 24.5289ZM4.30388 29.0044H11.4954C12.7606 29.0044 13.4926 30.2045 13.9589 30.6727L17.0893 35.0125C14.6532 34.9791 12.2524 34.4258 10.0475 33.3897C7.84256 32.3535 5.88435 30.8584 4.30388 29.0044Z" fill="#525C65"/>
<path fill-rule="evenodd" clip-rule="evenodd" d="M3.63722 28.2018H13.4278C15.7575 28.2018 17.1564 30.1395 17.1564 30.1395L20.4856 34.745L21.3513 34.6149C21.3513 34.6149 16.4245 27.7355 16.3576 27.6705C15.2912 26.0022 14.1598 25.3984 12.7609 25.3334H1.83887C2.24015 26.1341 2.83836 27.2005 3.63722 28.2018Z" fill="#525C65"/>
<path fill-rule="evenodd" clip-rule="evenodd" d="M42.3943 20.3879V15.0468C42.3943 12.3752 42.2605 9.70559 42.1268 7.10095C42.6599 7.16783 43.1263 7.23285 43.6594 7.23285C44.1258 7.23285 44.5921 7.16598 45.1253 7.10095C44.9922 9.74746 44.9259 12.3969 44.9265 15.0468V16.7838C44.9265 16.9176 44.9933 16.9844 45.0584 16.9844C45.1921 16.9844 45.259 16.9176 45.5247 16.7169C48.3875 14.2461 51.9174 10.3725 54.7802 7.10095C55.1797 7.16783 55.5791 7.23285 56.0454 7.23285C56.5099 7.23285 57.0449 7.16598 57.5094 7.10095C54.7134 9.57183 49.8515 14.1123 47.6537 16.7169C50.9829 20.4567 54.379 24.3952 57.8419 28.3356C57.2233 28.2545 56.6005 28.2099 55.9767 28.2018C55.4196 28.2122 54.8637 28.2569 54.3121 28.3356C51.3823 24.7296 46.7211 19.0522 45.3891 17.7183C45.2553 17.5845 45.1215 17.5176 45.0547 17.5176C44.9896 17.5176 44.9227 17.5845 44.9227 17.6514V20.3898C44.9227 22.9944 44.9896 25.731 45.1215 28.3375C44.5883 28.2687 44.122 28.2037 43.6557 28.2037C43.1225 28.2037 42.6562 28.2687 42.123 28.3375C42.2605 25.731 42.3943 22.9926 42.3943 20.3879Z" fill="#525C65"/>
</g>
<defs>
<clipPath id="clip0_886_123">
<rect width="160" height="35.094" fill="white"/>
</clipPath>
</defs>
</svg>
