<svg width="450" height="450" viewBox="0 0 450 450" fill="none" xmlns="http://www.w3.org/2000/svg">
<path d="M159.232 337.725C162.983 336.397 166.826 335.344 170.73 334.575L171.202 336.307C171.255 336.512 171.38 336.69 171.553 336.81C171.727 336.93 171.938 336.983 172.147 336.96L187.605 335.16C191.857 325.463 199.665 310.77 199.777 310.545C199.665 306.877 199.777 303.795 199.777 300.285C190.935 303.57 174.577 309.803 166.027 313.785C165.834 313.91 165.684 314.092 165.6 314.305C165.515 314.519 165.499 314.754 165.555 314.978C165.555 314.978 165.712 315.54 165.915 316.35C161.73 316.35 149.197 315.743 146.182 318.6C145.714 319.253 145.483 320.047 145.53 320.85C145.35 323.955 146.902 348.075 149.377 355.163C150.66 358.875 153.36 358.47 155.205 354.915C157.34 349.561 158.711 343.934 159.277 338.197C159.277 337.905 159.21 337.928 159.232 337.725ZM156.645 317.587C159.39 317.362 160.245 317.408 166.14 317.228C167.197 321.233 169.38 329.467 170.505 333.675C166.535 334.29 162.617 335.2 158.782 336.397C157.587 330.192 156.873 323.903 156.645 317.587Z" fill="#152330"/>
<path d="M366.322 120.668C366.885 119.88 366.165 118.868 365.557 118.08C367.278 116.31 369.187 114.733 371.25 113.378C374.731 111.643 377.913 109.364 380.677 106.628C381.825 105.435 383.985 102.983 383.175 101.543C382.365 100.103 380.925 100.013 378.967 100.845C379.815 99.9546 380.508 98.9277 381.015 97.8075C381.645 96.0525 380.16 94.635 376.942 95.94C378.112 94.0725 378.382 92.115 376.402 91.17C374.805 90.405 372.465 92.2275 371.115 93.42C368.464 95.7362 365.975 98.2321 363.667 100.89C362.25 97.92 360 94.5 357.187 95.58C354.375 96.66 356.557 101.498 357.997 104.13L352.89 107.663C352.118 107.246 351.246 107.051 350.37 107.1C344.565 108.09 317.902 128.385 315.202 128.385C313.132 128.385 283.567 114.21 258.007 110.115C257.958 109.962 257.866 109.825 257.743 109.722C257.619 109.618 257.469 109.552 257.31 109.53C252.852 108.769 248.332 108.43 243.81 108.518C243.673 108.527 243.539 108.566 243.419 108.632C243.298 108.698 243.194 108.789 243.112 108.9H241.222C240.772 107.078 239.107 102.87 238.522 101.25C240.052 99.9225 242.167 99.2475 243.27 97.11C245.295 93.15 245.205 86.265 244.642 81.855C247.185 79.92 247.252 76.815 246.667 73.6425C246.442 72.36 245.745 69.4575 244.665 68.7375C244.057 68.3325 242.775 68.7375 241.672 69.1425C240.57 66.5775 240.57 67.7475 241.02 66.7125C241.229 66.2355 241.351 65.725 241.38 65.205C242.572 65.565 245.047 63.18 244.192 60.03C243.744 58.9024 243.195 57.8179 242.55 56.79C242.865 56.025 243.54 55.1025 241.425 52.29C240.514 51.3074 239.331 50.6182 238.027 50.31H236.992C236.246 49.2261 235.15 48.4317 233.887 48.06C231.982 47.5741 229.961 47.8569 228.262 48.8475C227.812 49.185 227.452 49.635 227.002 49.95C225.985 49.3322 224.818 49.0056 223.627 49.0056C222.437 49.0056 221.27 49.3322 220.252 49.95C219.657 50.1837 219.115 50.5354 218.658 50.9839C218.202 51.4324 217.841 51.9685 217.597 52.56C216.495 52.1796 215.325 52.0332 214.163 52.13C213.001 52.2269 211.872 52.5649 210.847 53.1225C206.96 55.2302 204.053 58.7756 202.747 63C202.711 63.637 202.711 64.2755 202.747 64.9125H202.5C199.125 64.4175 194.827 72.4275 198.27 78.66C198.675 79.4025 199.192 80.1 199.687 80.91C201.127 83.16 200.565 83.835 203.782 86.58C204.727 87.39 204.885 87.3225 205.47 87.8175C206.055 88.3125 205.83 88.065 206.167 89.325C206.351 90.0673 206.681 90.7656 207.136 91.3797C207.592 91.9938 208.165 92.5114 208.822 92.9025C209.061 95.1033 210 97.1694 211.5 98.7975C211.975 99.3291 212.529 99.7844 213.142 100.148C213.308 100.241 213.493 100.295 213.682 100.305C214.357 104.49 215.19 109.935 215.55 112.253L213.547 113.333C210.927 114.387 208.379 115.612 205.92 117C205.727 117.134 205.591 117.334 205.537 117.563C203.152 118.823 200.902 120.015 199.62 120.78C181.755 131.378 131.017 201.24 130.5 204.435C130.443 204.618 130.443 204.814 130.5 204.998C131.227 206.158 132.113 207.21 133.132 208.125C132.818 208.698 132.441 209.234 132.007 209.723C127.507 212.67 120.757 217.058 117.135 220.973C116.881 221.199 116.69 221.488 116.582 221.811C116.473 222.133 116.451 222.479 116.517 222.812C116.583 223.146 116.735 223.457 116.957 223.715C117.18 223.972 117.466 224.167 117.787 224.28C118.462 224.505 118.575 224.438 122.962 222.03C121.756 223.088 120.77 224.372 120.06 225.81C119.767 227.048 120.892 227.768 122.31 227.542C123.107 227.333 123.867 226.999 124.56 226.553C124.154 227.179 123.938 227.91 123.938 228.656C123.938 229.403 124.154 230.133 124.56 230.76C126.81 233.595 132.705 224.663 135.81 222.458C137.07 224.055 138.78 227.79 141.502 226.8C143.865 225.923 141.277 220.725 141.502 219.217C142.418 218.338 143.395 217.526 144.427 216.788C146.163 218.075 148.148 218.987 150.255 219.465C153.967 219.465 192.712 180.36 195.66 177.232C194.602 187.178 189.27 229.86 190.395 238.163C190.912 241.92 199.935 242.46 203.737 242.663C202.59 269.663 201.825 310.568 201.622 310.995C195.66 323.842 194.04 327.353 192.037 331.245C188.392 338.22 173.047 363.96 171.315 369.81C171.067 370.733 171.045 371.093 172.012 372.803C169.113 375.851 166.422 379.091 163.957 382.5C162.72 384.75 168.03 405.72 171.787 413.145C172.642 414.81 174.037 417.375 175.905 417.308C181.53 417.105 181.507 396.9 181.35 391.253C181.349 391.078 181.285 390.911 181.17 390.78C182.189 389.258 183.302 387.801 184.5 386.415C185.215 386.907 185.967 387.344 186.75 387.72C187.515 388.058 188.37 387.473 189 386.955C196.492 381.06 236.902 330.705 245.565 306.945C249.502 296.1 254.745 281.115 256.23 270.495C257.138 263.78 257.221 256.98 256.477 250.245C256.477 250.15 256.515 250.058 256.583 249.99C256.65 249.923 256.742 249.885 256.837 249.885C256.933 249.885 257.024 249.923 257.092 249.99C257.159 250.058 257.197 250.15 257.197 250.245C258.324 257.018 258.544 263.911 257.85 270.743C256.185 285.48 244.552 316.193 238.342 327.488C243.697 326.497 254.587 324.337 259.852 322.763C277.402 317.43 293.602 301.523 295.02 283.658C295.478 275.241 295.478 266.806 295.02 258.39C294.868 246.771 293.358 235.21 290.52 223.943C295.29 221.355 299.655 218.318 301.072 215.528C304.11 209.565 296.077 175.253 294.322 165.623C303.93 166.68 320.287 168.593 327.915 162.63C336.645 155.61 355.5 135.855 366.322 120.668ZM180.135 390.015C176.085 387.562 170.415 381.735 169.56 377.168C170.482 375.998 171.45 374.918 172.35 373.703C175.399 378.356 179.201 382.469 183.6 385.875C182.364 387.185 181.207 388.568 180.135 390.015ZM359.01 104.76C359.126 104.686 359.21 104.57 359.243 104.436C359.277 104.302 359.257 104.16 359.19 104.04C358.402 102.578 356.04 97.425 357.682 96.84C358.627 96.48 359.46 97.065 360.157 97.8525C361.222 99.2037 362.052 100.725 362.61 102.353C362.651 102.485 362.728 102.603 362.832 102.695C362.936 102.787 363.063 102.849 363.199 102.875C363.336 102.9 363.476 102.888 363.606 102.84C363.736 102.791 363.851 102.708 363.937 102.6C366.187 100.103 371.452 94.41 374.422 92.88C376.672 91.71 377.212 93.87 371.7 98.91C370.434 99.8754 369.217 100.904 368.055 101.993C367.991 102.081 367.956 102.187 367.956 102.296C367.956 102.405 367.991 102.512 368.055 102.6C368.055 103.185 368.527 103.838 369.337 103.23C371.293 101.513 373.36 99.9272 375.525 98.4825C376.63 97.6976 377.914 97.2025 379.26 97.0425C378.585 99.1125 372.307 104.738 371.767 105.368C371.596 105.521 371.492 105.736 371.477 105.965C371.463 106.195 371.539 106.421 371.689 106.595C371.84 106.769 372.052 106.877 372.282 106.895C372.511 106.914 372.738 106.842 372.915 106.695C375.412 105.075 379.777 101.295 381.285 101.858C382.792 102.42 378.315 106.605 377.19 107.595C370.732 113.198 372.397 109.598 364.927 117.203C361.676 113.641 357.942 110.551 353.835 108.023L359.01 104.76ZM261.247 212.378C260.865 209.273 260.392 205.92 259.807 202.433L260.775 201.15C265.275 195.368 266.625 186.165 266.197 178.943C268.605 189.495 270.517 199.868 271.98 210.173L261.247 212.378ZM227.79 135.338C221.872 130.838 212.355 123.075 206.82 117.765L215.82 113.265C224.084 120.984 231.158 129.886 236.812 139.68C245.457 155.561 251.87 172.559 255.87 190.193L223.785 144.81L227.97 136.125C228.025 135.991 228.038 135.844 228.005 135.703C227.973 135.561 227.898 135.434 227.79 135.338ZM243 109.823C243.135 110.07 244.687 113.378 247.05 119.16C247.05 119.408 246.622 125.033 246.42 127.013C243.548 125.874 240.84 124.361 238.365 122.513C238.86 120.555 241.087 111.668 241.245 109.665L243 109.823ZM235.012 133.988C235.17 133.583 235.327 133.043 235.507 132.413L237.015 133.2C237.87 133.763 237.532 132.053 238.297 137.003C238.297 137.835 238.522 138.757 238.567 139.77C237.532 137.903 236.25 135.9 235.035 133.988H235.012ZM233.752 132.098C229.502 126.068 224.663 120.476 219.307 115.403L236.25 122.76C235.597 124.313 234.652 129.06 233.775 132.098H233.752ZM251.055 145.283C248.805 139.14 247.072 132.278 246.217 130.478C246.268 129.916 246.268 129.351 246.217 128.79C246.543 128.911 246.884 128.987 247.23 129.015C247.447 129.017 247.657 128.941 247.823 128.801C247.988 128.66 248.097 128.465 248.13 128.25C248.31 127.508 248.602 123.75 248.647 122.918C255.193 139.443 260.657 156.376 265.005 173.61C252.292 146.565 254.25 154.395 251.077 145.283H251.055ZM269.662 188.235C264.532 163.643 255.51 132.975 245.25 110.25C249.018 110.252 252.779 110.553 256.5 111.15C258.412 128.25 256.815 127.665 258.097 128.34C259.38 129.015 267.097 132.12 268.245 132.593C268.132 134.325 269.752 183.87 269.685 188.235H269.662ZM243.765 70.1775C244.938 72.7372 245.352 75.5796 244.957 78.3675C244.774 79.0771 244.398 79.7219 243.87 80.2302C243.342 80.7385 242.683 81.0903 241.967 81.2466C241.251 81.4028 240.506 81.3573 239.814 81.1152C239.123 80.873 238.512 80.4437 238.05 79.875C236.976 77.6135 236.168 75.2351 235.642 72.7875C236.25 72 242.73 70.425 243.765 70.1775ZM212.805 92.6775C211.983 92.3033 211.142 91.9728 210.285 91.6875C209.71 91.4511 209.196 91.0862 208.784 90.6207C208.372 90.1552 208.072 89.6014 207.907 89.0019C207.742 88.4024 207.716 87.7731 207.832 87.1622C207.948 86.5513 208.202 85.975 208.575 85.4775C209.992 84.285 211.275 84.3525 212.445 86.13C213.187 87.5025 213.165 87.615 213.502 87.75C213.599 87.7927 213.704 87.8142 213.81 87.813C213.916 87.8119 214.02 87.7881 214.116 87.7434C214.212 87.6987 214.297 87.6339 214.366 87.5536C214.434 87.4732 214.485 87.3791 214.515 87.2775C214.848 85.8692 214.902 84.409 214.672 82.98C214.402 81.4275 214.357 74.5425 214.402 74.3175C215.06 74.6639 215.798 74.8272 216.54 74.79C220.612 74.6325 221.422 72.54 223.042 70.83C224.91 71.01 225.292 71.91 227.407 70.83C228.398 70.2666 229.306 69.5702 230.107 68.76C230.754 69.0248 231.378 69.3408 231.975 69.705C233.323 70.3535 234.844 70.5526 236.314 70.2732C237.784 69.9938 239.126 69.2505 240.142 68.1525C240.39 68.625 240.615 69.0975 240.817 69.5925C238.75 70.2341 236.803 71.215 235.057 72.495C234.675 72.9675 235.237 75.5325 235.372 76.14C233.487 76.3771 231.664 76.9647 229.995 77.8725C229.657 76.7025 228.915 74.52 227.745 73.9125C227.393 73.8048 227.017 73.8048 226.665 73.9125C224.64 74.2275 217.372 76.41 216.495 77.6025C215.73 78.435 217.912 84.87 218.587 85.9275C221.175 89.9325 228.757 88.7625 230.175 84.0825C230.526 82.5119 230.526 80.8831 230.175 79.3125C230.827 79.3125 232.785 78.615 233.01 78.5475C234.562 82.035 235.012 82.2375 236.812 85.995C236.565 86.1975 236.16 86.535 235.822 86.76C234.225 87.8175 233.887 87.6375 233.977 88.0875C234.004 88.1768 234.061 88.2535 234.14 88.3032C234.219 88.3529 234.313 88.3722 234.405 88.3575C235.349 88.2226 236.272 87.9654 237.15 87.5925C237.675 87.3965 238.109 87.0113 238.365 86.5125C238.995 85.095 235.507 79.7625 234.135 78.165C234.405 78.165 235.035 77.715 235.507 77.4675C236.137 79.9875 236.565 81.9675 238.995 82.9575C239.697 83.2226 240.446 83.3434 241.196 83.3124C241.946 83.2815 242.682 83.0996 243.36 82.7775C243.72 86.7375 243.652 93.1725 241.762 96.6825C240.795 98.505 238.41 99.2025 236.88 100.71C236.43 101.138 236.722 101.745 236.88 102.398C239.377 109.35 239.422 109.328 239.287 110.228C238.625 113.963 237.7 117.647 236.52 121.253C235.957 121.005 229.635 117.653 217.26 112.838C216.877 110.295 214.83 96.7275 214.177 94.23C214.222 93.3525 214.11 93.15 212.805 92.565V92.6775ZM228.555 83.4975C227.835 85.95 224.437 87.0075 222.007 86.3325C219.577 85.6575 219.42 84.42 218.272 81.495C217.734 80.3776 217.363 79.1875 217.17 77.9625C217.912 77.1525 226.035 75.4875 227.047 75.33C228.467 77.7594 229 80.6065 228.555 83.385V83.4975ZM140.512 218.588C139.657 219.42 140.805 222.143 140.985 224.505C140.985 224.708 140.985 225.585 140.85 225.653C139.612 226.058 138.465 224.19 137.767 223.065C137.07 221.94 136.372 220.41 135.27 220.815C133.02 221.872 127.8 228.803 125.752 229.523C124.717 227.543 130.635 221.895 130.837 221.58C130.924 221.435 130.97 221.27 130.969 221.101C130.968 220.932 130.921 220.767 130.833 220.623C130.745 220.479 130.619 220.362 130.469 220.285C130.319 220.208 130.151 220.173 129.982 220.185C129.577 220.185 129.307 220.545 128.677 221.107C126.761 222.978 124.568 224.541 122.175 225.743C124.344 223.253 126.666 220.901 129.127 218.7C129.249 218.575 129.334 218.42 129.375 218.25C129.375 218.25 128.902 217.058 127.98 217.53C126.675 218.25 120.33 221.918 118.327 222.863C118.057 222.683 118.215 222.413 118.327 222.143C121.5 218.25 128.475 213.525 132.75 210.533C133.252 210.016 133.669 209.424 133.987 208.778C136.948 211.532 140.106 214.067 143.437 216.36C142.411 217.033 141.434 217.777 140.512 218.588ZM192.87 239.04C192.375 238.725 192.015 238.433 191.947 238.028C190.71 228.848 197.595 176.827 197.482 174.78C197.482 174.66 197.458 174.541 197.412 174.43C197.365 174.32 197.297 174.219 197.211 174.136C197.125 174.052 197.023 173.986 196.911 173.942C196.799 173.898 196.68 173.877 196.56 173.88C195.412 173.88 197.437 173.88 168.772 201.33C166.882 203.108 152.437 216.923 150.03 217.845C146.722 217.598 134.28 207.675 132.255 204.548C136.17 196.628 183.645 131.468 200.07 121.5C201.33 120.735 203.49 119.543 205.852 118.283C206.669 119.053 207.55 119.753 208.485 120.375C213.705 125.325 220.972 131.49 226.485 136.125L222.187 144.653C222.122 144.765 222.088 144.893 222.088 145.024C222.088 145.154 222.122 145.282 222.187 145.395C257.085 195.458 256.567 194.895 256.792 194.895C259.029 206.463 260.421 218.179 260.955 229.95C260.955 233.122 260.955 232.853 261.09 232.628C261.225 232.403 261.09 232.785 261.09 232.785C255.645 238.725 201.757 244.26 192.87 239.04ZM317.25 164.498C307.057 165.915 295.537 163.8 293.31 163.71C292.072 157.712 289.605 152.035 286.065 147.038C286.011 146.965 285.931 146.915 285.842 146.898C285.753 146.882 285.661 146.899 285.584 146.947C285.507 146.996 285.451 147.071 285.428 147.159C285.405 147.247 285.415 147.34 285.457 147.42C286.762 150.075 291.127 161.528 292.207 164.318C291.87 165.398 302.377 208.845 299.407 214.695C296.752 219.982 281.295 226.643 275.715 228.555C274.612 216.029 272.809 203.575 270.315 191.25C271.08 184.77 270.09 146.25 269.797 132.007C269.789 131.842 269.733 131.682 269.638 131.547C269.542 131.412 269.41 131.306 269.257 131.243L259.155 126.99C259.109 121.643 258.771 116.303 258.142 110.993C283.365 115.358 312.75 129.78 315.202 129.803C318.757 129.803 345.172 109.553 350.64 108.743C353.07 108.36 363.51 117.473 364.725 119.993C354.06 134.888 335.317 154.463 326.632 161.235C323.835 163.106 320.605 164.229 317.25 164.498Z" fill="#152330"/>
<path d="M226.237 78.9975C226.209 78.8498 226.152 78.709 226.07 78.5833C225.987 78.4575 225.881 78.3492 225.757 78.2646C225.632 78.18 225.493 78.1207 225.345 78.0901C225.198 78.0595 225.046 78.0582 224.899 78.0863C224.751 78.1143 224.61 78.1712 224.484 78.2537C224.359 78.3362 224.25 78.4426 224.166 78.5669C224.081 78.6912 224.022 78.831 223.991 78.9782C223.961 79.1254 223.959 79.2773 223.987 79.425C224.437 81.675 224.527 82.1925 225.517 82.1925C225.704 82.1932 225.889 82.1471 226.054 82.0586C226.218 81.97 226.359 81.8417 226.461 81.6853C226.564 81.529 226.626 81.3494 226.642 81.1629C226.658 80.9765 226.627 80.789 226.552 80.6175C226.485 80.2575 226.282 79.2 226.237 78.9975ZM233.122 93.8925C234.585 94.32 235.98 93.6225 235.935 93.2625C235.89 92.9025 235.935 93.0825 233.955 92.34C232.627 91.845 231.165 90.09 230.647 90.36C230.13 90.63 230.917 92.07 231.097 92.34C231.579 93.0703 232.292 93.6172 233.122 93.8925ZM274.275 72.5175C271.327 84.87 269.167 95.355 268.807 97.4475C268.568 98.3579 268.522 99.3083 268.672 100.238C269.865 102.78 285.277 107.798 287.235 106.808C289.192 105.818 294.277 94.365 300.195 82.5525C303.82 82.6683 307.447 82.4044 311.017 81.765C314.776 81.0754 318.435 79.9189 321.907 78.3225C329.512 74.8125 337.837 59.7825 338.962 52.2225C339.806 44.0146 338.068 35.748 333.99 28.575C315.112 -4.16249 259.74 13.455 264.24 49.815C265.525 58.1349 268.987 65.967 274.275 72.5175ZM288 99.315C288 99.675 287.595 99.63 285.75 99.315C281.976 98.8408 278.322 97.6737 274.972 95.8725C273.397 95.0175 272.97 94.8375 273.127 94.455C273.285 94.0725 273.622 94.2075 276.052 94.8825C276.277 94.8825 283.252 97.1325 285.255 97.83C287.842 99 288 99 288 99.315ZM287.595 62.7075C289.997 62.8321 292.392 62.3362 294.547 61.2675C296.551 62.2381 298.718 62.8257 300.937 63C297.157 70.0425 289.485 84.3975 287.01 92.0475L277.47 89.415C279.72 83.88 284.692 70.92 287.55 62.7075H287.595ZM286.807 60.84C285.128 60.5863 283.578 59.7886 282.395 58.5693C281.212 57.3501 280.462 55.7765 280.26 54.09C279.63 49.59 282.51 44.55 286.852 45.7425C289.575 46.485 289.912 48.645 289.44 51.3675C289.035 53.3475 287.572 58.32 286.762 60.75L286.807 60.84ZM292.927 55.44C293.168 53.9677 293.72 52.5638 294.547 51.3225C294.941 50.6458 295.516 50.0931 296.209 49.7272C296.901 49.3613 297.681 49.1968 298.462 49.2525C300.127 49.7475 300.847 52.8975 299.475 54.8775C298.156 56.628 296.514 58.1097 294.637 59.2425C293.992 58.8636 293.477 58.2961 293.164 57.6164C292.85 56.9367 292.752 56.1772 292.882 55.44H292.927ZM272.25 26.8425C282.33 14.715 301.297 9.90001 315 14.895C322.444 17.4502 328.705 22.6239 332.617 29.4525C336.497 36.278 338.156 44.1416 337.365 51.9525C336.33 58.95 328.365 73.485 321.367 76.7025C314.97 79.6208 307.989 81.0369 300.96 80.8425C300.195 80.8425 299.385 80.8425 299.092 81.3825C297.765 84.0825 295.335 89.3025 292.95 94.2075C291.303 93.4123 289.595 92.7502 287.842 92.2275C290.452 84.7575 298.687 70.0875 302.602 62.9775C305.994 63.2681 309.404 62.6792 312.502 61.2675C313.339 60.8269 314.033 60.1567 314.503 59.3355C314.972 58.5144 315.198 57.5763 315.153 56.6314C315.108 55.6866 314.795 54.7741 314.249 54.0012C313.704 53.2282 312.95 52.6268 312.075 52.2675C308.587 50.5575 305.46 54.6525 303.637 58.095C303.142 58.995 302.58 60.0525 301.95 61.245C300.13 61.1254 298.335 60.7544 296.617 60.1425C298.328 58.94 299.846 57.4832 301.117 55.8225C301.83 54.7467 302.191 53.4764 302.15 52.1867C302.11 50.8971 301.67 49.6517 300.892 48.6225C300.281 47.9126 299.432 47.4501 298.504 47.3217C297.576 47.1933 296.633 47.4078 295.852 47.925C294.277 48.8932 293.014 50.2957 292.216 51.964C291.417 53.6323 291.118 55.4955 291.352 57.33C291.597 58.3655 292.155 59.3005 292.95 60.0075C291.474 60.6188 289.89 60.9249 288.292 60.9075C289.192 58.2525 290.655 53.46 291.037 51.5025C291.277 50.3865 291.33 49.2384 291.195 48.105C291.021 47.132 290.569 46.23 289.895 45.5075C289.22 44.785 288.351 44.2728 287.392 44.0325C281.925 42.48 277.897 48.5325 278.685 54.18C278.907 56.2039 279.776 58.1022 281.162 59.5936C282.548 61.085 284.378 62.0901 286.38 62.46C283.5 70.56 279 83.6325 276.75 89.2125L271.8 87.93C274.972 72 275.355 72.3825 274.905 72.18C269.792 65.6618 266.521 57.892 265.432 49.68C264.902 45.6081 265.235 41.4701 266.41 37.5354C267.584 33.6007 269.574 29.9573 272.25 26.8425ZM303.48 61.38C305.055 58.5225 308.205 52.2675 311.265 53.7975C311.877 54.0441 312.41 54.4532 312.806 54.9805C313.203 55.5079 313.448 56.1336 313.515 56.79C313.47 60.75 307.305 61.4475 303.39 61.38H303.48ZM389.61 71.3025C392.321 69.7079 395.524 69.1635 398.61 69.7725C402 69.8332 405.238 71.1886 407.66 73.5608C410.083 75.933 411.506 79.1421 411.637 82.53C409.599 81.3472 407.215 80.9023 404.887 81.27C399.24 81.765 391.86 84.825 392.85 90.27C393.66 94.77 399.6 94.1625 404.1 92.9475C408.6 91.7325 412.177 89.5275 413.1 85.185C418.567 89.1675 419.85 96.1425 420.075 102.96C420.075 103.055 420.113 103.147 420.18 103.215C420.248 103.282 420.339 103.32 420.435 103.32C420.53 103.32 420.622 103.282 420.689 103.215C420.757 103.147 420.795 103.055 420.795 102.96C420.952 95.3325 419.58 87.8625 413.347 83.52C413.411 81.5665 413.078 79.6203 412.369 77.7993C411.659 75.9782 410.586 74.3202 409.217 72.9255C407.848 71.5309 406.21 70.4287 404.402 69.6856C402.594 68.9425 400.654 68.5741 398.7 68.6025C395.576 68.1464 392.392 68.7992 389.7 70.4475C388.867 70.8525 389.25 71.46 389.61 71.3025ZM410.13 87.435C407.587 90.765 400.387 92.4975 397.057 91.935C395.82 91.7325 394.807 91.215 394.537 89.9325C393.727 85.4325 401.49 82.98 406.125 82.8225C408.012 82.6778 409.895 83.1603 411.48 84.195C411.31 85.3714 410.845 86.4858 410.13 87.435ZM379.305 45C381.712 42.03 380.092 36.855 373.365 36.8325C370.755 36.8325 369.495 39.4875 369.675 42.03C370.08 48.0825 376.897 47.9025 379.305 45ZM371.25 41.9175C371.25 40.4325 371.947 38.4975 373.5 38.52C377.122 38.52 378.787 40.2075 378.787 42.075C378.697 46.3275 370.957 48.5325 371.25 41.9175ZM370.327 297C350.55 289.103 341.37 327.33 325.215 360.18C325.113 361.561 325.158 362.949 325.35 364.32C325.35 367.762 325.732 390.555 327.735 393.142C328.275 394.177 330.547 393.142 331.605 392.49C340.586 386.93 349.05 380.574 356.895 373.5C356.962 373.424 357.012 373.334 357.043 373.237C357.074 373.141 357.085 373.039 357.075 372.938C361.26 366.975 376.942 335.925 380.745 320.355C383.4 309.33 380.767 301.118 370.327 297ZM377.392 325.575C366.804 324.218 356.567 320.875 347.22 315.72C352.485 305.753 358.987 294.39 369.72 298.665C381.667 303.413 381.42 313.245 377.392 325.507V325.575ZM339.952 384.075C339.261 383.496 338.507 382.997 337.702 382.59C334.662 381.044 331.149 380.707 327.87 381.645C327.645 378.967 326.362 361.552 326.362 361.395C343.215 367.56 338.017 364.883 354.712 373.185C352.957 374.85 346.365 379.462 339.952 384.03V384.075ZM351.562 318.96C353.757 320.159 356.01 321.248 358.312 322.223C353.155 330.323 348.598 338.791 344.677 347.557C340.897 355.455 341.032 355.41 337.185 364.027C334.935 363.307 332.685 362.632 330.435 361.957C332.865 357.12 350.145 321.75 351.562 318.915V318.96ZM338.062 364.253C345.375 351.135 352.822 334.822 359.212 322.515C361.462 323.46 363.712 324.225 365.962 324.9C364.77 327.15 361.282 333.135 360.36 334.867C359.437 336.6 350.19 354.825 349.537 356.22C348.502 358.47 345.667 364.747 344.79 366.75C342.495 365.737 340.29 364.972 337.972 364.207L338.062 364.253ZM345.6 367.043C346.972 364.545 352.62 354.06 353.317 352.71C354.375 350.617 366.165 326.52 366.817 325.125C368.887 325.71 371.07 326.205 372.465 326.475C368.347 337.725 356.49 359.392 352.215 370.08C348.322 368.257 347.445 367.807 345.51 366.997L345.6 367.043ZM346.972 316.372L351 318.622C342.883 332.444 335.814 346.855 329.85 361.733L326.475 360.697C339.547 332.842 340.155 329.197 346.882 316.327L346.972 316.372ZM356.242 372.038L352.845 370.418C356.512 363.217 367.987 344.745 373.23 326.632C374.49 326.857 375.727 327.06 376.92 327.217C371.138 342.645 364.195 357.613 356.152 371.992L356.242 372.038ZM285.75 386.64C286.647 385.898 287.288 384.892 287.582 383.766C287.877 382.639 287.811 381.449 287.392 380.362C287.201 378.795 286.482 377.339 285.354 376.234C284.225 375.129 282.754 374.442 281.183 374.285C279.611 374.128 278.033 374.51 276.708 375.37C275.383 376.229 274.39 377.514 273.892 379.012C271.012 377.145 267.885 375.165 264.892 373.275C267.142 370.282 273.757 371.61 274.432 374.062C274.447 374.158 274.499 374.244 274.578 374.301C274.656 374.358 274.753 374.381 274.849 374.366C274.944 374.351 275.03 374.299 275.087 374.221C275.144 374.143 275.167 374.045 275.152 373.95C274.815 370.035 266.67 367.74 263.385 372.353C260.482 370.575 256.882 368.415 253.867 366.772C256.455 364.522 262.237 365.783 262.867 368.122C262.897 368.203 262.954 368.269 263.028 368.311C263.103 368.353 263.19 368.367 263.273 368.351C263.357 368.335 263.432 368.289 263.486 368.223C263.539 368.156 263.567 368.073 263.565 367.987C263.272 364.342 255.735 361.89 252.315 365.895C250.882 365.092 249.375 364.429 247.815 363.915C247.53 363.797 247.217 363.764 246.913 363.819C246.61 363.875 246.329 364.018 246.105 364.23C240.412 371.318 221.22 389.723 212.355 391.86C212.132 391.894 211.922 391.985 211.746 392.126C211.57 392.266 211.434 392.451 211.351 392.661C211.269 392.871 211.244 393.099 211.278 393.321C211.312 393.544 211.404 393.754 211.545 393.93C213.491 395.906 215.721 397.582 218.16 398.902C215.91 401.152 214.155 403.177 212.85 404.64C212.175 405.36 211.815 419.13 212.4 422.168C212.487 422.465 212.679 422.721 212.94 422.887C215.775 424.822 252.292 440.617 256.027 438.503C258.525 437.085 288.337 406.057 288.81 405.112C289.53 403.628 289.282 393.727 289.237 389.767C289.057 388.575 286.83 387.292 285.75 386.64ZM213.75 416.362V411.345C223.087 415.845 244.462 425.025 252.562 427.59C254.632 428.265 254.812 428.175 255.892 427.59C262.08 423.63 283.927 399.015 287.932 395.257V400.005C275.782 412.177 255.15 433.508 254.767 432.293C252.54 432.158 215.685 417.263 213.75 416.362ZM285.187 379.057C285.996 380.42 286.431 381.973 286.447 383.557C286.439 384.062 286.316 384.557 286.085 385.006C285.855 385.455 285.525 385.845 285.12 386.145C283.23 384.885 279.652 382.545 275.422 379.8C277.74 375.233 282.892 375.165 285.097 379.057H285.187ZM213.187 393.457C222.772 390.622 240.975 373.072 247.095 365.467C248.568 365.877 249.987 366.459 251.325 367.2C249.075 371.385 251.482 375.975 252.337 375.322C252.81 374.962 251.955 374.827 251.82 372.622C251.762 371.012 252.127 369.414 252.877 367.987C255.982 369.608 259.627 371.723 262.71 373.5C260.82 377.707 263.092 381.87 263.88 381.262C264.667 380.655 263.52 380.79 263.385 378.585C263.33 377.139 263.607 375.7 264.195 374.378C267.367 376.245 270.607 378.18 273.577 380.003C273.12 381.124 272.938 382.338 273.048 383.544C273.157 384.75 273.555 385.912 274.207 386.932C274.237 386.971 274.274 387.003 274.316 387.027C274.358 387.051 274.404 387.067 274.452 387.073C274.5 387.08 274.549 387.076 274.596 387.064C274.643 387.051 274.686 387.03 274.725 387C274.763 386.97 274.795 386.934 274.82 386.892C274.844 386.85 274.859 386.803 274.866 386.755C274.872 386.707 274.869 386.658 274.856 386.612C274.844 386.565 274.822 386.521 274.792 386.483C274.388 385.589 274.188 384.616 274.208 383.635C274.227 382.654 274.465 381.69 274.905 380.812C280.147 384.008 284.377 386.685 285.682 387.562C285.435 387.788 261.967 408.667 253.98 414.878C248.737 413.505 221.22 399.847 213.187 393.457ZM214.042 405.99C224.235 410.49 247.387 420.93 252.72 421.942C253.642 422.122 254.002 422.19 255.757 420.795C263.25 414.788 287.617 389.295 287.842 389.565C287.853 389.632 287.853 389.7 287.842 389.767V394.267C282.825 398.295 254.925 427.59 254.475 426.195C252.225 426.195 215.662 411.277 213.795 410.445C213.75 409.5 213.952 406.98 214.042 405.99ZM255.015 436.995C252.765 438.277 218.497 424.35 213.907 421.515C213.735 420.082 213.652 418.639 213.66 417.195C223.515 422.055 252.18 434.16 254.812 434.048C258.66 433.845 285.862 403.222 287.797 401.085C287.82 402.234 287.706 403.382 287.46 404.505C287.077 405.247 256.5 436.163 255.015 436.995ZM68.6023 310.163C68.7598 312.57 68.8723 314.663 68.8723 316.62C68.8723 316.918 68.9908 317.204 69.2018 317.415C69.4128 317.626 69.6989 317.745 69.9973 317.745C70.2957 317.745 70.5818 317.626 70.7928 317.415C71.0038 317.204 71.1223 316.918 71.1223 316.62C71.1223 314.527 71.0098 312.457 70.8523 310.005C70.8314 309.707 70.6929 309.429 70.4671 309.233C70.2414 309.036 69.9469 308.938 69.6485 308.959C69.3502 308.98 69.0723 309.118 68.8761 309.344C68.6799 309.57 68.5814 309.864 68.6023 310.163ZM411.435 265.05C411.288 265.059 411.144 265.096 411.012 265.161C410.88 265.226 410.762 265.317 410.666 265.428C410.569 265.539 410.496 265.668 410.45 265.808C410.405 265.948 410.388 266.096 410.4 266.243C410.535 268.312 410.67 270.54 410.67 272.7C410.67 272.998 410.788 273.285 410.999 273.496C411.21 273.706 411.496 273.825 411.795 273.825C412.093 273.825 412.379 273.706 412.59 273.496C412.801 273.285 412.92 272.998 412.92 272.7C412.92 270.45 412.785 268.2 412.627 266.085C412.619 265.938 412.581 265.794 412.516 265.662C412.451 265.53 412.36 265.413 412.249 265.316C412.138 265.22 412.009 265.146 411.869 265.101C411.729 265.055 411.581 265.038 411.435 265.05ZM62.7748 304.56C63.0732 304.56 63.3593 304.441 63.5703 304.23C63.7813 304.02 63.8998 303.733 63.8998 303.435C63.8998 303.137 63.7813 302.85 63.5703 302.639C63.3593 302.428 63.0732 302.31 62.7748 302.31C60.0523 302.31 57.7798 302.512 55.5298 302.467C55.2293 302.467 54.9408 302.585 54.7262 302.796C54.5117 303.006 54.3882 303.292 54.3823 303.592C54.3823 303.891 54.5008 304.177 54.7118 304.388C54.9228 304.599 55.2089 304.717 55.5073 304.717C57.8248 304.762 60.3673 304.672 62.7748 304.56ZM404.46 258.39C401.76 258.39 399.487 258.548 397.215 258.57C396.916 258.57 396.63 258.689 396.419 258.9C396.208 259.11 396.09 259.397 396.09 259.695C396.09 259.993 396.208 260.28 396.419 260.491C396.63 260.701 396.916 260.82 397.215 260.82C399.645 260.82 402.165 260.82 404.595 260.64C404.893 260.622 405.172 260.486 405.371 260.263C405.569 260.039 405.67 259.746 405.652 259.448C405.634 259.149 405.499 258.87 405.275 258.672C405.051 258.473 404.758 258.372 404.46 258.39ZM67.9948 290.655C68.1298 292.725 68.2648 294.953 68.2648 297.113C68.2706 297.409 68.3909 297.692 68.6007 297.902C68.8104 298.111 69.0932 298.232 69.3898 298.238C69.6882 298.238 69.9743 298.119 70.1853 297.908C70.3963 297.697 70.5148 297.411 70.5148 297.113C70.5148 294.863 70.3798 292.613 70.2448 290.497C70.2239 290.199 70.0854 289.921 69.8596 289.725C69.6339 289.529 69.3394 289.43 69.041 289.451C68.7427 289.472 68.4648 289.611 68.2686 289.836C68.0724 290.062 67.9739 290.357 67.9948 290.655ZM412.312 253.193C412.312 250.943 412.177 248.693 412.02 246.577C411.999 246.279 411.86 246.001 411.635 245.805C411.409 245.609 411.114 245.51 410.816 245.531C410.518 245.552 410.24 245.691 410.044 245.916C409.847 246.142 409.749 246.437 409.77 246.735C409.905 248.805 410.04 251.033 410.04 253.193C410.04 253.491 410.158 253.777 410.369 253.988C410.58 254.199 410.866 254.318 411.165 254.318C411.465 254.318 411.754 254.2 411.968 253.989C412.183 253.779 412.306 253.493 412.312 253.193ZM84.5998 304.267C84.7476 304.262 84.8928 304.227 85.027 304.165C85.1613 304.103 85.2821 304.015 85.3824 303.906C85.4827 303.798 85.5606 303.67 85.6116 303.532C85.6627 303.393 85.6858 303.245 85.6798 303.098C85.6571 302.803 85.5239 302.528 85.3069 302.328C85.0898 302.127 84.8051 302.017 84.5098 302.017C81.7873 302.13 79.5148 302.22 77.2423 302.175C76.9439 302.175 76.6578 302.294 76.4468 302.504C76.2358 302.715 76.1173 303.002 76.1173 303.3C76.1173 303.598 76.2358 303.884 76.4468 304.095C76.6578 304.306 76.9439 304.425 77.2423 304.425C79.6498 304.47 82.1698 304.38 84.5998 304.267ZM426.285 258.098C424.035 258.21 421.537 258.278 419.04 258.278C418.891 258.271 418.743 258.295 418.604 258.348C418.465 258.401 418.338 258.481 418.231 258.584C418.124 258.687 418.039 258.811 417.98 258.947C417.922 259.084 417.892 259.231 417.892 259.38C417.892 259.68 418.01 259.969 418.22 260.184C418.431 260.398 418.717 260.522 419.017 260.528C421.582 260.528 423.652 260.528 426.375 260.348C426.523 260.342 426.668 260.307 426.802 260.245C426.936 260.183 427.057 260.095 427.157 259.986C427.258 259.878 427.336 259.75 427.387 259.612C427.438 259.473 427.461 259.325 427.455 259.178C427.427 258.885 427.292 258.613 427.076 258.414C426.861 258.214 426.579 258.102 426.285 258.098ZM32.8948 237.6C33.1873 237.825 96.6373 228.42 99.3598 226.755C99.5106 226.645 99.6309 226.499 99.7096 226.329C99.7883 226.16 99.8228 225.974 99.8098 225.788C99.8098 222.885 96.0073 195.638 94.1848 188.843C93.9598 188.01 93.7348 187.178 93.2173 186.885C89.7748 184.815 29.1148 196.245 25.4923 198.585C25.3941 198.643 25.3093 198.721 25.2434 198.814C25.1775 198.907 25.132 199.013 25.1098 199.125C24.3448 201.848 30.9373 236.25 32.8948 237.6ZM26.4823 199.665C30.8023 197.708 85.8598 187.628 92.1598 188.415C93.6898 192.353 97.7848 221.198 98.0548 225.428C94.9273 226.35 33.7498 236.858 33.5248 236.903C33.2998 236.948 33.2773 237.218 32.8048 235.8C30.8248 229.86 26.3698 204.75 26.4823 199.665Z" fill="#152330"/>
<path d="M104.31 228.758C104.432 228.53 104.487 228.272 104.467 228.015C104.467 224.438 99.3374 184.725 97.5149 181.553C97.372 181.319 97.1698 181.127 96.9287 180.996C96.6876 180.866 96.4163 180.802 96.1424 180.81C88.6049 179.888 25.0199 192.308 20.8349 195.21C20.2499 195.615 20.3399 196.628 20.4074 197.708C20.7674 203.625 27.1574 242.55 29.4074 242.325C29.6549 242.325 29.5649 242.145 28.9799 243.338C25.4699 250.56 18.8099 273.69 18.9449 278.348C18.9449 280.305 19.3949 282.848 21.3299 282.713C35.2124 281.003 103.275 270.203 122.85 266.175C123.615 266.018 124.11 265.32 124.087 264.173C123.856 262.261 123.277 260.408 122.377 258.705C119.632 253.553 108.247 233.145 104.31 228.758ZM29.5424 241.628C27.7874 239.378 21.3299 200.61 21.8249 196.313C26.7749 193.748 89.5049 181.62 96.0749 182.61C97.8749 187.56 102.532 223.313 102.825 227.61C94.8599 230.355 39.7124 239.265 29.5424 241.628ZM30.5324 242.303C32.4224 241.83 96.7949 231.053 102.69 229.5C105.907 232.493 120.442 258.345 121.387 260.55C108.472 262.8 31.8599 275.603 20.5874 277.313C20.7449 270.495 27.7424 246.668 30.5324 242.303Z" fill="#152330"/>
<path d="M38.9924 265.635C40.9499 265.343 82.4849 260.348 97.4924 256.275C97.5849 256.251 97.6641 256.192 97.7127 256.109C97.7612 256.027 97.775 255.929 97.7512 255.836C97.7273 255.744 97.6677 255.665 97.5854 255.616C97.5031 255.568 97.4049 255.554 97.3124 255.578C94.3649 256.185 58.4099 260.978 38.9474 264.938C38.8937 264.928 38.8384 264.931 38.7858 264.945C38.7332 264.96 38.6847 264.987 38.644 265.023C38.6032 265.06 38.5713 265.105 38.5506 265.155C38.5299 265.206 38.5209 265.26 38.5244 265.315C38.5279 265.37 38.5438 265.423 38.5709 265.47C38.5979 265.517 38.6354 265.558 38.6805 265.589C38.7256 265.62 38.7771 265.64 38.8311 265.648C38.8852 265.656 38.9403 265.652 38.9924 265.635ZM69.3449 109.08C68.5044 110.978 67.7977 112.933 67.2299 114.93C67.1964 115.25 67.2848 115.572 67.4774 115.83C69.7499 119.25 93.0374 145.508 99.1124 149.198C99.9449 149.715 100.935 150.075 101.542 149.333C105.955 143.841 111.715 139.586 118.26 136.98C123.587 135.095 129.172 134.04 134.82 133.853C139.32 133.448 140.107 132.998 141.84 130.05C143.884 126.171 146.595 122.683 149.85 119.745C154 116.116 158.607 113.045 163.552 110.61C163.775 110.484 163.949 110.287 164.047 110.05C164.145 109.814 164.161 109.552 164.092 109.305C163.332 107.37 162.326 105.54 161.1 103.86C161.91 103.59 162.81 103.343 162.81 102.533C162.81 100.283 143.19 71.8875 137.745 66.5325C137.182 65.97 136.372 65.2275 135.63 65.2725C124.38 65.9025 113.422 76.5225 107.077 85.7925C99.8099 85.5225 95.1074 84.87 86.8274 88.3575C80.9821 90.8387 75.7121 94.5002 71.3474 99.1125C70.6724 99.81 66.0824 104.67 66.0149 105.053C65.9474 105.435 66.0824 105.435 69.3449 109.08ZM159.345 108.45C149.962 110.048 143.977 117.855 139.567 126.338C137.61 130.118 137.79 130.298 135.72 130.253C132.1 130.048 128.469 130.183 124.875 130.658C122.239 131.052 119.647 131.7 117.135 132.593C111.42 134.618 104.872 141.098 101.385 145.913C101.311 146.012 101.217 146.094 101.109 146.154C101 146.214 100.881 146.251 100.758 146.261C100.634 146.272 100.51 146.256 100.394 146.216C100.277 146.175 100.17 146.11 100.08 146.025C92.7674 138.488 79.8299 125.258 73.3274 117.653C73.0124 117.315 73.5524 116.82 73.8674 117.18C78.0749 121.68 88.9424 132.458 100.597 144.18C104.535 139.163 110.61 133.088 116.617 130.973C119.893 129.804 123.302 129.048 126.765 128.723C130.008 128.476 133.265 128.476 136.507 128.723C137.835 127.193 144.405 109.823 159.3 107.888C159.344 107.92 159.379 107.961 159.405 108.009C159.43 108.056 159.444 108.109 159.447 108.163C159.449 108.217 159.439 108.271 159.417 108.321C159.396 108.37 159.363 108.415 159.322 108.45H159.345ZM135.607 67.095C140.107 70.245 158.422 97.3575 160.807 102.105C156.669 103.416 152.674 105.143 148.882 107.258C145.292 109.057 142.149 111.635 139.681 114.804C137.213 117.972 135.483 121.651 134.617 125.573C126.54 112.433 115.267 97.965 107.775 87.3225C108.225 87.03 120.87 67.9725 135.607 67.095ZM87.3224 89.595C95.5349 86.2875 100.08 87.0525 106.875 87.345C113.625 98.865 125.752 115.11 133.74 125.753C126.368 124.008 118.61 125.075 111.982 128.745C108 130.995 103.14 136.395 100.147 139.748C95.8274 136.283 70.8974 109.733 66.8924 105.233C73.0574 98.2575 78.7499 93.015 87.3224 89.505V89.595ZM46.1474 146.813C45.5913 146.422 44.9339 146.202 44.2549 146.178C43.576 146.154 42.9047 146.327 42.3224 146.678C41.8984 146.867 41.5158 147.137 41.1964 147.474C40.8771 147.811 40.6272 148.208 40.4611 148.641C40.295 149.075 40.2159 149.537 40.2284 150.001C40.2408 150.465 40.3446 150.922 40.5337 151.346C40.7228 151.77 40.9935 152.153 41.3305 152.472C41.6675 152.792 42.064 153.041 42.4976 153.208C42.9311 153.374 43.3931 153.453 43.8572 153.44C44.3213 153.428 44.7784 153.324 45.2024 153.135C45.8798 152.987 46.4961 152.636 46.9697 152.13C47.4433 151.624 47.7518 150.985 47.8543 150.3C47.9568 149.614 47.8484 148.913 47.5436 148.29C47.2388 147.668 46.7519 147.152 46.1474 146.813ZM44.6624 151.313C43.0874 151.808 42.1424 151.313 41.7599 150.548C41.0399 148.95 41.9399 146.498 44.2799 147.218C45.9224 147.825 47.2499 150.593 44.6624 151.425V151.313ZM160.56 43.8525C161.212 45.18 164.25 44.685 165.577 44.2575C166.275 44.0325 166.725 43.785 166.792 43.11C166.995 41.4225 167.22 26.7975 166.455 25.38C166.376 25.2314 166.255 25.1094 166.107 25.0293C165.959 24.9493 165.79 24.9147 165.622 24.93C163.222 24.9234 160.833 25.2721 158.535 25.965C157.612 26.5275 159.75 42.3675 160.56 43.8525ZM159.007 26.505C161.086 26.2077 163.188 26.1097 165.285 26.2125C165.42 27.8775 165.06 42.3 165.037 42.525C164.087 42.8657 163.072 42.9887 162.067 42.885C161.91 42.3675 161.64 40.9725 161.302 39.2175C160.311 35.024 159.545 30.7805 159.007 26.505ZM43.9649 127.823C44.1808 127.933 44.4199 127.991 44.6624 127.991C44.905 127.991 45.144 127.933 45.3599 127.823C46.2292 127.286 46.9186 126.503 47.3399 125.573C47.3971 125.424 47.4148 125.262 47.3911 125.105C47.3675 124.947 47.3033 124.798 47.2049 124.673C46.1249 123.39 34.3349 109.733 32.8949 110.588C31.1269 111.732 29.4495 113.011 27.8774 114.413C27.8141 114.469 27.7633 114.539 27.7284 114.616C27.6935 114.694 27.6753 114.778 27.6749 114.863C27.6299 116.033 40.7249 126.518 43.9649 127.823ZM33.1649 111.173C34.8074 112.365 40.3424 119.205 45.4724 125.258C45.2517 125.605 44.9785 125.916 44.6624 126.18C39.2689 122.728 34.1192 118.909 29.2499 114.75C30.4706 113.468 31.7787 112.273 33.1649 111.173ZM68.5124 61.5375C69.0074 52.8075 74.0924 48.7575 79.4024 47.7225C77.8949 53.2575 78.1424 60.4575 83.6099 61.38C86.2199 61.8075 87.5024 60.4575 89.3924 58.8825C97.4699 52.1325 90.9449 45.3825 81.8324 45.855C85.2299 36.54 93.0824 28.9575 103.5 28.71C103.595 28.71 103.687 28.6721 103.754 28.6046C103.822 28.5371 103.86 28.4455 103.86 28.35C103.86 28.2545 103.822 28.163 103.754 28.0955C103.687 28.0279 103.595 27.99 103.5 27.99C92.2499 27.765 83.4074 35.865 79.9199 45.99C73.9124 47.025 67.9499 51.525 67.7924 61.4025C67.7836 61.4498 67.7841 61.4984 67.794 61.5454C67.8039 61.5925 67.823 61.6371 67.8501 61.6768C67.8773 61.7165 67.912 61.7505 67.9523 61.7768C67.9926 61.8031 68.0376 61.8212 68.0849 61.83C68.1322 61.8389 68.1808 61.8383 68.2278 61.8284C68.2749 61.8185 68.3195 61.7995 68.3592 61.7723C68.3989 61.7451 68.4329 61.7104 68.4592 61.6701C68.4855 61.6299 68.5036 61.5848 68.5124 61.5375ZM81.3149 47.4525C84.6674 47.2275 89.6624 48.2625 91.0349 51.3C91.8224 53.0325 91.0349 55.17 88.2449 57.51C87.4875 58.2688 86.6234 58.9131 85.6799 59.4225C82.3049 60.8625 78.5699 56.7 81.3149 47.4525ZM87.7499 365.67C85.5761 365.088 83.3078 364.946 81.0785 365.254C78.8491 365.561 76.7038 366.311 74.7687 367.46C72.8336 368.609 71.1479 370.133 69.8107 371.943C68.4735 373.754 67.5119 375.813 66.9824 378C65.9829 382.544 66.8294 387.299 69.3359 391.219C71.8423 395.139 75.8033 397.903 80.3474 398.902C84.8916 399.902 89.6467 399.055 93.5667 396.549C97.4866 394.043 100.25 390.082 101.25 385.538C101.677 383.346 101.666 381.091 101.217 378.904C100.769 376.716 99.8919 374.639 98.637 372.793C97.382 370.946 95.7739 369.366 93.9054 368.143C92.0368 366.921 89.9448 366.08 87.7499 365.67ZM94.7024 384.008C93.7996 387.608 91.6384 390.767 88.6094 392.913C85.5804 395.059 81.8837 396.05 78.1874 395.707C74.7944 394.382 71.9776 391.902 70.2327 388.704C68.4877 385.506 67.9264 381.796 68.6474 378.225C69.4893 374.537 71.6305 371.275 74.6795 369.036C77.7284 366.797 81.4815 365.73 85.2524 366.03C88.6789 367.446 91.4962 370.025 93.2084 373.313C94.9205 376.602 95.4177 380.389 94.6124 384.008H94.7024Z" fill="#152330"/>
<path d="M117.72 372.082C115.761 371.407 113.662 371.244 111.622 371.61C110.777 369.672 109.737 367.825 108.517 366.098C109.98 364.77 113.985 361.08 113.017 359.348C109.574 355.229 105.486 351.696 100.912 348.885C99.0025 347.815 96.8995 347.134 94.7249 346.882C93.2849 347.085 89.8649 352.687 89.0999 353.947C88.6049 353.947 86.8499 353.385 86.7149 353.317C86.7149 351.697 86.2424 345.848 84.7799 345.172C83.1444 344.57 81.4461 344.155 79.7174 343.935C78.1199 343.688 63.7424 346.32 62.6849 348.255C61.9874 349.56 63.6074 354.487 64.0799 355.86C62.8664 356.528 61.7011 357.28 60.5924 358.11C58.3424 359.707 58.9499 359.64 58.5449 359.46C58.0554 359.226 57.531 359.074 56.9924 359.01C55.195 357.956 53.0877 357.559 51.0299 357.885C48.9599 358.56 44.0774 369.675 43.2899 372.533C43.0322 373.253 42.9625 374.027 43.0874 374.783C43.6274 376.268 47.2274 377.46 48.7349 377.932C48.3186 380.828 48.3186 383.767 48.7349 386.663C46.7549 387.203 42.6374 388.418 42.8624 390.443C43.0874 392.467 48.3524 405.832 50.5349 406.89C51.7305 407.559 53.0526 407.97 54.4164 408.098C55.7803 408.226 57.1558 408.067 58.4549 407.633C59.1865 407.267 59.893 406.854 60.5699 406.395C61.4699 407.07 62.4149 407.677 63.3824 408.262C62.6849 409.995 61.1324 413.865 61.6274 415.62C61.8749 416.543 62.6174 416.835 63.6524 417.217C66.5099 418.253 81.8999 421.943 84.2399 421.538C85.1174 421.403 85.5899 420.48 85.8599 419.603C86.3598 417.605 86.6538 415.562 86.7374 413.505C87.8929 413.391 89.0419 413.218 90.1799 412.988C90.8748 414.21 91.7639 415.312 92.8124 416.25C93.9599 417.06 94.9274 416.655 96.2324 415.823C96.8624 416.633 97.8074 417.758 98.8199 417.87C101.362 418.163 111.87 408.263 112.95 406.238C113.85 404.55 110.565 401.535 109.102 400.207C110.684 397.827 111.926 395.237 112.792 392.512C114.415 392.757 116.058 392.847 117.697 392.783C118.44 392.783 119.295 392.513 119.61 391.815C120.982 388.688 120.577 376.83 119.61 373.815C119.475 372.938 118.462 372.352 117.72 372.082ZM118.26 374.152C119.025 377.077 119.272 388.125 118.147 390.983C116.202 391.174 114.239 391.083 112.32 390.712C112.115 390.677 111.904 390.72 111.729 390.833C111.555 390.945 111.428 391.119 111.375 391.32C110.479 394.362 109.088 397.235 107.257 399.825C107.127 399.997 107.068 400.212 107.093 400.426C107.119 400.64 107.226 400.836 107.392 400.973C108.971 402.223 110.312 403.748 111.352 405.473C110.227 407.318 101.43 415.372 98.9999 416.048C98.6399 416.048 97.6499 414.697 97.4024 414.337C96.5713 413.089 95.8198 411.789 95.1524 410.445C95.055 410.249 94.8879 410.097 94.6839 410.018C94.48 409.939 94.2539 409.939 94.0499 410.017C87.5249 412.47 85.0499 411.03 85.0499 412.65C85.0528 415.076 84.6575 417.485 83.8799 419.783C78.5923 419.208 73.3852 418.045 68.3549 416.318C68.5978 413.915 69.2684 411.576 70.3349 409.41C71.0099 407.903 68.3099 408.33 63.2699 403.2C63.1077 403.05 62.8947 402.966 62.6736 402.966C62.4525 402.966 62.2396 403.05 62.0774 403.2C59.8274 405.045 56.9024 406.845 56.3174 406.553C55.1699 405.99 49.8824 393.997 49.5674 391.568C51.1677 390.452 52.9844 389.686 54.8999 389.318C55.1042 389.26 55.2806 389.13 55.3964 388.952C55.5122 388.774 55.5597 388.56 55.5299 388.35C54.9785 385.164 54.9785 381.906 55.5299 378.72C55.5643 378.524 55.523 378.322 55.4145 378.155C55.3059 377.988 55.1381 377.868 54.9449 377.82C53.2487 377.376 51.6156 376.718 50.0849 375.863C49.5899 375.503 49.6349 375.525 49.6799 375.142C51.1362 369.89 53.4717 364.922 56.5874 360.45C57.8024 360.112 61.0874 362.52 62.2124 363.375C62.3299 363.489 62.4873 363.553 62.6511 363.553C62.8149 363.553 62.9723 363.489 63.0899 363.375C64.1237 362.303 65.2369 361.31 66.4199 360.405C69.8399 357.817 70.7624 358.155 70.4699 357.255C69.4355 354.997 68.8546 352.559 68.7599 350.077C69.1086 349.788 69.5043 349.559 69.9299 349.402C72.0305 348.572 74.1886 347.895 76.3874 347.377C79.0525 346.635 81.7917 346.19 84.5549 346.05C85.0274 346.253 85.4549 348.3 85.5674 348.93C86.3999 353.43 85.8374 354.353 86.4899 354.42C92.9024 355.05 94.2074 356.827 94.6574 356.04C95.9051 353.858 97.3592 351.801 98.9999 349.897C99.4724 349.425 99.4499 349.2 100.867 350.01C105.102 352.777 108.895 356.168 112.117 360.067C112.455 360.652 109.53 363.758 107.392 365.58C106.65 366.232 107.707 366.525 109.642 370.215C111.577 373.905 111.127 374.94 112.162 374.715C114.158 374.237 116.211 374.048 118.26 374.152ZM430.537 186.143C425.821 184.216 420.875 182.908 415.822 182.25C412.132 181.665 407.79 181.08 404.122 180.607C407.655 175.612 418.117 162.967 419.872 159.885C420.367 159.052 419.422 157.882 418.725 157.185C414.81 153 407.25 151.425 401.445 150.525C398.115 149.985 384.21 148.275 381.847 149.4C379.012 150.75 358.042 182.25 357.412 187.042C357.412 187.852 357.682 188.168 358.47 188.46C361.777 189.675 376.695 191.565 380.025 192.352C375.525 200.227 355.522 226.845 353.565 230.602C353.092 231.547 353.385 232.11 353.947 232.29C355.972 233.094 358.056 233.741 360.18 234.225C360.99 234.472 362.767 233.37 365.355 231.795C376.965 224.82 426.78 191.925 430.605 187.673C430.71 187.573 430.793 187.451 430.848 187.317C430.902 187.182 430.927 187.037 430.921 186.892C430.914 186.747 430.877 186.605 430.811 186.476C430.745 186.346 430.651 186.233 430.537 186.143ZM382.185 213.143C363.06 225.765 356.602 229.455 356.377 229.612C359.46 224.91 378.607 198.675 381.892 192.397C381.95 192.276 381.979 192.144 381.978 192.01C381.978 191.876 381.947 191.743 381.889 191.623C381.831 191.502 381.746 191.396 381.642 191.312C381.537 191.228 381.415 191.168 381.285 191.137C379.035 190.327 362.655 188.572 358.785 187.2C359.28 183.015 379.71 151.38 382.185 150.12C384.66 148.86 408.667 151.717 413.167 154.935C410.805 159.547 397.755 175.702 395.64 179.46C395.212 180.225 395.077 180.967 395.91 181.17C396.742 181.372 417.892 183.847 422.505 185.355C416.88 190.057 388.485 208.913 382.185 213.053V213.143ZM237.847 75.5775C237.847 75.78 237.982 76.0275 238.32 77.3325C238.408 77.6156 238.603 77.8534 238.863 77.996C239.123 78.1386 239.429 78.175 239.715 78.0975C240.001 78.0139 240.243 77.82 240.386 77.5584C240.53 77.2968 240.563 76.9889 240.48 76.7025C240.255 75.825 240.052 75.0825 239.917 74.7225C239.786 74.4754 239.568 74.286 239.305 74.1913C239.042 74.0965 238.753 74.1032 238.494 74.2099C238.236 74.3167 238.026 74.5159 237.907 74.7688C237.787 75.0216 237.766 75.3099 237.847 75.5775Z" fill="#152330"/>
</svg>
