<svg width="91" height="45" viewBox="0 0 91 45" fill="none" xmlns="http://www.w3.org/2000/svg">
<g clip-path="url(#clip0_886_166)">
<path d="M0.0454102 0.0549927V44.9223H45.8785L90.7407 0.0600436H0.0454102V0.0549927Z" fill="#525C65"/>
<path d="M58.0996 40.3361V43.6823H58.6047V42.2302H59.1728L60.0884 43.6823H60.6566L59.6779 42.2302C60.167 42.1696 60.5619 41.8852 60.5619 41.2831C60.5619 40.6235 60.1582 40.3361 59.3624 40.3361H58.0996ZM58.6047 40.778H59.2991C59.6407 40.778 60.0252 40.8336 60.0252 41.2515C60.0252 41.7739 59.6358 41.8198 59.2045 41.8198H58.6047V40.778ZM59.2361 39.1049C57.6339 39.1049 56.2686 40.3394 56.2686 42.0091C56.2686 43.6911 57.6338 44.945 59.2361 44.945C60.816 44.945 62.1404 43.6913 62.1404 42.0091C62.1404 40.3394 60.816 39.1049 59.2361 39.1049ZM59.2361 39.5784C60.5432 39.5784 61.572 40.6344 61.572 42.0091C61.572 43.4074 60.5432 44.4399 59.2361 44.4399C57.9066 44.4399 56.8369 43.4074 56.8369 42.0091C56.8369 40.6344 57.9066 39.5784 59.2361 39.5784Z" fill="#525C65"/>
<path fill-rule="evenodd" clip-rule="evenodd" d="M54.3904 21.5234H52.4246V14.3339H54.3904C57.0148 14.3339 59.1039 15.1986 59.1039 17.8827C59.1039 20.6546 57.0148 21.5234 54.3904 21.5234ZM33.2321 26.6632C32.1916 26.6632 31.2157 26.4733 30.3722 26.1561L33.2038 17.2261H33.2644L36.0374 26.1804C35.2019 26.4794 34.2513 26.6632 33.2351 26.6632H33.2321ZM53.8691 8.49304H44.9421V29.72L37.1435 8.49304H29.4136L22.7504 26.24C22.0463 21.7669 17.4126 20.2182 13.7699 19.0636C11.3687 18.2908 8.8129 17.1554 8.83614 15.8977C8.85634 14.8693 10.209 13.9157 12.8769 14.0581C14.675 14.1491 16.261 14.2945 19.4097 15.8169L22.511 10.4144C19.638 8.94661 15.6569 8.02532 12.4001 8.01825H12.3799C8.58056 8.01825 5.41464 9.25674 3.45085 11.2842C2.08609 12.7025 1.34764 14.4966 1.31431 16.4937C1.2638 19.2293 2.27095 21.1709 4.37921 22.7235C6.16319 24.0307 8.43913 24.8722 10.4494 25.5025C12.9294 26.2672 14.9538 26.935 14.9306 28.3583C14.9104 28.8765 14.7174 29.3624 14.3426 29.7463C13.7254 30.3878 12.7769 30.6252 11.4646 30.6545C8.93513 30.705 7.05922 30.311 4.0711 28.5452L1.31431 34.0234C4.29334 35.7195 7.81989 36.7115 11.4192 36.7115H11.8849C15.0164 36.6509 17.5459 35.7569 19.5673 34.1325L19.8946 33.8466L19.0016 36.2468H27.1083L28.4701 32.1061C29.8944 32.588 31.5168 32.8587 33.2341 32.8587C34.91 32.8587 36.4909 32.6061 37.89 32.1455L39.1992 36.2468H52.4266V27.6704H55.3127C62.2829 27.6704 66.4105 24.1226 66.4105 18.1686C66.4105 11.5418 62.4021 8.50213 53.8681 8.50213" fill="white"/>
</g>
<defs>
<clipPath id="clip0_886_166">
<rect width="90.786" height="45" fill="white"/>
</clipPath>
</defs>
</svg>
