<svg width="48" height="48" viewBox="0 0 48 48" fill="none" xmlns="http://www.w3.org/2000/svg">
<path d="M3.53896 39.7428C3.74657 42.2981 5.70187 44.2534 8.25717 44.461C11.4854 44.7233 16.636 45 24 45C31.364 45 36.5146 44.7233 39.7428 44.461C42.2981 44.2534 44.2534 42.2981 44.461 39.7428C44.7233 36.5146 45 31.364 45 24C45 16.636 44.7233 11.4854 44.461 8.25718C44.2534 5.70188 42.2981 3.74658 39.7428 3.53897C36.5146 3.27668 31.364 3 24 3C16.636 3 11.4854 3.27667 8.25718 3.53896C5.70188 3.74657 3.74658 5.70187 3.53897 8.25717C3.27668 11.4854 3 16.636 3 24C3 31.364 3.27667 36.5146 3.53896 39.7428Z" fill="#01070D"/>
<path d="M19 20C16.7909 20 15 18.2091 15 16C15 13.7909 16.7909 12 19 12C21.2091 12 23 13.7909 23 16C23 18.2091 21.2091 20 19 20Z" fill="#01070D"/>
<path d="M29 28C31.2091 28 33 29.7909 33 32C33 34.2091 31.2091 36 29 36C26.7909 36 25 34.2091 25 32C25 29.7909 26.7909 28 29 28Z" fill="#01070D"/>
<path d="M3.53896 39.7428C3.74657 42.2981 5.70187 44.2534 8.25717 44.461C11.4854 44.7233 16.636 45 24 45C31.364 45 36.5146 44.7233 39.7428 44.461C42.2981 44.2534 44.2534 42.2981 44.461 39.7428C44.7233 36.5146 45 31.364 45 24C45 16.636 44.7233 11.4854 44.461 8.25718C44.2534 5.70188 42.2981 3.74658 39.7428 3.53897C36.5146 3.27668 31.364 3 24 3C16.636 3 11.4854 3.27667 8.25718 3.53896C5.70188 3.74657 3.74658 5.70187 3.53897 8.25717C3.27668 11.4854 3 16.636 3 24C3 31.364 3.27667 36.5146 3.53896 39.7428Z" stroke="#0141FF" stroke-linecap="round" stroke-linejoin="round"/>
<path d="M23 16H37" stroke="#0141FF" stroke-linecap="round" stroke-linejoin="round"/>
<path d="M25 32H11" stroke="#0141FF" stroke-linecap="round" stroke-linejoin="round"/>
<path d="M11 16H15" stroke="#0141FF" stroke-linecap="round" stroke-linejoin="round"/>
<path d="M37 32H33" stroke="#0141FF" stroke-linecap="round" stroke-linejoin="round"/>
<path d="M15 16C15 18.2091 16.7909 20 19 20C21.2091 20 23 18.2091 23 16C23 13.7909 21.2091 12 19 12C16.7909 12 15 13.7909 15 16Z" stroke="#0141FF" stroke-linecap="round" stroke-linejoin="round"/>
<path d="M33 32C33 29.7909 31.2091 28 29 28C26.7909 28 25 29.7909 25 32C25 34.2091 26.7909 36 29 36C31.2091 36 33 34.2091 33 32Z" stroke="#0141FF" stroke-linecap="round" stroke-linejoin="round"/>
</svg>
