<svg width="44" height="44" viewBox="0 0 44 44" fill="none" xmlns="http://www.w3.org/2000/svg">
<path d="M16.352 1.30691C17.6806 1.45286 18.2924 2.84463 17.4751 3.90235C16.6622 4.95441 15.461 6.39741 13.7281 8.2591C15.8428 10.614 17.2168 12.3682 18.03 13.4781C18.6761 14.3599 18.7616 15.4708 18.0507 16.3011C17.8209 16.5695 17.5367 16.8775 17.1855 17.2265C16.8547 17.5554 16.5627 17.824 16.3076 18.0432C15.473 18.7602 14.3634 18.6602 13.4854 17.9972C12.3886 17.169 10.6551 15.7845 8.3127 13.6865C6.39623 15.4788 4.92904 16.7003 3.86969 17.5154C2.82203 18.3215 1.4573 17.7158 1.31132 16.402C0.865531 12.3901 0.968271 7.64281 1.18037 3.91689C1.26446 2.43965 2.43891 1.26526 3.91615 1.18122C7.62678 0.970111 12.3506 0.867381 16.352 1.30691Z" stroke="#0141FF" stroke-linecap="round" stroke-linejoin="round"/>
<path d="M27.6478 1.30691C26.3191 1.45286 25.7074 2.84463 26.5246 3.90235C27.3375 4.95441 28.5388 6.39741 30.2716 8.2591C28.157 10.614 26.783 12.3682 25.9697 13.4781C25.3237 14.3599 25.2381 15.4708 25.9491 16.3011C26.1789 16.5695 26.4631 16.8775 26.8142 17.2265C27.1451 17.5554 27.4371 17.824 27.6922 18.0432C28.5268 18.7602 29.6363 18.6602 30.5144 17.9972C31.6111 17.169 33.3446 15.7845 35.6871 13.6865C37.6035 15.4788 39.0707 16.7003 40.1301 17.5154C41.1777 18.3215 42.5424 17.7158 42.6884 16.402C43.1342 12.3901 43.0315 7.64281 42.8194 3.91689C42.7353 2.43965 41.5608 1.26526 40.0836 1.18122C36.373 0.970111 31.6492 0.867381 27.6478 1.30691Z" stroke="#0141FF" stroke-linecap="round" stroke-linejoin="round"/>
<path d="M27.6478 42.6932C26.3191 42.5472 25.7074 41.1555 26.5246 40.0977C27.3375 39.0457 28.5388 37.6027 30.2716 35.741C28.1569 33.3861 26.783 31.6319 25.9697 30.5219C25.3237 29.6402 25.2381 28.5293 25.9491 27.699C26.1789 27.4306 26.4631 27.1226 26.8142 26.7736C27.1451 26.4447 27.4371 26.1761 27.6922 25.9569C28.5268 25.2399 29.6363 25.3399 30.5144 26.0029C31.6111 26.8311 33.3446 28.2156 35.6871 30.3136C37.6035 28.5213 39.0707 27.2998 40.1301 26.4847C41.1777 25.6786 42.5424 26.2843 42.6884 27.5981C43.1342 31.61 43.0315 36.3573 42.8194 40.0832C42.7353 41.5604 41.5608 42.7348 40.0836 42.8189C36.373 43.03 31.6492 43.1327 27.6478 42.6932Z" stroke="#0141FF" stroke-linecap="round" stroke-linejoin="round"/>
<path d="M15.3519 42.7261C16.6811 42.5854 17.2898 41.1956 16.4683 40.1411C15.7313 39.195 14.6756 37.9319 13.1942 36.3309C15.6142 33.6774 17.1503 31.7227 18.03 30.5219C18.6761 29.6402 18.7616 28.5293 18.0507 27.699C17.8209 27.4306 17.5367 27.1226 17.1855 26.7736C16.8547 26.4447 16.5627 26.1761 16.3076 25.9569C15.473 25.2399 14.3634 25.3399 13.4854 26.0029C12.2984 26.8993 10.3654 28.4473 7.72181 30.8463C6.06891 29.3094 4.78032 28.2322 3.82479 27.4908C2.78045 26.6804 1.41901 27.2843 1.27816 28.5987C0.88093 32.3053 0.96997 36.6507 1.16225 40.1025C1.24455 41.5798 2.41952 42.7547 3.89686 42.837C7.33346 43.0283 11.6559 43.1174 15.3519 42.7261Z" stroke="#0141FF" stroke-linecap="round" stroke-linejoin="round"/>
</svg>
