<svg width="165" height="25" viewBox="0 0 165 25" fill="none" xmlns="http://www.w3.org/2000/svg">
<g clip-path="url(#clip0_886_211)">
<path fill-rule="evenodd" clip-rule="evenodd" d="M40.142 7.47003C38.3692 7.47003 36.8496 8.10319 35.5833 9.11623V7.72329H31.2778V24.0587H35.7099V13.6749C36.3431 12.7885 37.8626 11.6488 39.7621 11.6488C40.3953 11.6488 41.0284 11.7755 41.5349 11.9021V7.72329C41.0284 7.59666 40.5219 7.47003 40.142 7.47003Z" fill="#152330"/>
<path fill-rule="evenodd" clip-rule="evenodd" d="M2.02609 18.9909C3.16577 20.004 4.9386 20.6371 6.45817 20.6371C7.59785 20.6371 8.6109 20.004 8.6109 19.2442C8.6109 16.7116 0.633154 17.598 0.633154 12.4061C0.633154 9.24034 3.67229 7.34088 6.83807 7.34088C8.99079 7.34088 11.2701 8.10067 12.4098 8.98708L10.3837 12.1529C9.49731 11.6463 8.48427 11.0132 7.21796 11.0132C5.95165 11.0132 5.06523 11.5197 5.06523 12.4061C5.06523 14.5588 13.043 13.6724 13.043 19.3708C13.043 22.5366 10.0038 24.436 6.5848 24.436C4.30545 24.436 1.89946 23.6763 0 22.2833L2.02609 18.9909Z" fill="#152330"/>
<path fill-rule="evenodd" clip-rule="evenodd" d="M29.3785 15.6985C29.3785 11.1398 26.2127 7.34088 21.654 7.34088C16.842 7.34088 13.6763 11.3931 13.6763 15.8251C13.6763 21.017 17.3486 24.3094 22.1605 24.3094C24.6932 24.3094 27.2258 23.2964 28.872 21.3969L26.3394 18.8643C25.5796 19.7507 24.06 20.7638 22.2872 20.7638C20.0078 20.7638 18.1083 19.1176 17.8551 16.8382H29.1252C29.3785 16.5849 29.3785 16.205 29.3785 15.6985ZM18.235 13.7991C18.4882 12.2795 20.0078 10.8865 21.7806 10.8865C23.5535 10.8865 24.8198 12.2795 25.073 13.7991H18.235Z" fill="#152330"/>
<path fill-rule="evenodd" clip-rule="evenodd" d="M60.7829 7.72339L53.3116 24.0588H50.2725L42.8013 7.72339H47.2333L51.7921 17.7272L56.2241 7.72339H60.7829Z" fill="#152330"/>
<path fill-rule="evenodd" clip-rule="evenodd" d="M64.4553 -0.0010376C66.1015 -0.0010376 67.3678 1.26527 67.3678 2.78484C67.3678 4.43104 66.1015 5.57072 64.4553 5.57072C62.8091 5.57072 61.6694 4.30441 61.6694 2.78484C61.6694 1.13864 62.8091 -0.0010376 64.4553 -0.0010376Z" fill="#152330"/>
<path d="M66.7343 7.72327H62.3022V24.0586H66.7343V7.72327Z" fill="#152330"/>
<path fill-rule="evenodd" clip-rule="evenodd" d="M84.7159 20.6371C82.8164 23.1697 80.4105 24.3094 77.3713 24.3094C72.3061 24.3094 68.6338 20.5105 68.6338 15.8251C68.6338 11.0132 72.4327 7.34088 77.3713 7.34088C80.2838 7.34088 82.6898 8.73382 84.2094 10.6333L81.2969 13.2925C80.4105 12.1529 79.1441 11.3931 77.6246 11.3931C75.092 11.3931 73.1925 13.4192 73.1925 15.8251C73.1925 18.3578 74.9653 20.2572 77.6246 20.2572C79.3974 20.2572 80.7904 19.2442 81.5501 18.1045L84.7159 20.6371Z" fill="#152330"/>
<path fill-rule="evenodd" clip-rule="evenodd" d="M100.545 21.3969C98.8986 23.2964 96.366 24.3094 93.8334 24.3094C89.0214 24.3094 85.3491 21.017 85.3491 15.8251C85.3491 11.2664 88.3883 7.34088 93.3269 7.34088C97.7589 7.34088 101.051 11.1398 101.051 15.6985C101.051 16.205 101.051 16.5849 100.925 16.9648H89.5279C89.7812 19.2442 91.6807 20.8904 93.96 20.8904C95.7328 20.8904 97.2524 19.8773 98.0122 18.9909L100.545 21.3969ZM96.4926 13.7991C96.366 12.4061 95.0997 10.8865 93.2002 10.8865C91.4274 10.8865 89.9078 12.2795 89.6546 13.7991H96.4926Z" fill="#152330"/>
<path fill-rule="evenodd" clip-rule="evenodd" d="M102.698 24.0561V7.72073H106.877V9.11367C108.143 8.10062 109.662 7.46747 111.435 7.46747C113.715 7.46747 115.741 8.48052 117.134 10.1267C118.147 11.393 118.907 13.0392 118.907 15.8251V24.1827H114.474V15.4452C114.474 13.799 114.095 12.9126 113.461 12.4061C112.828 11.7729 112.068 11.393 110.929 11.393C109.156 11.393 107.636 12.5327 106.877 13.4191V24.0561H102.698Z" fill="#152330"/>
<path fill-rule="evenodd" clip-rule="evenodd" d="M130.177 7.34338C124.858 7.34338 120.679 11.5222 120.679 16.8407C120.679 19.6266 121.819 22.1592 123.592 23.932C124.225 24.5652 125.365 24.5652 126.124 24.0587C127.137 23.1722 128.657 22.6657 130.177 22.6657C131.823 22.6657 133.089 23.1722 134.229 24.0587C134.988 24.6918 136.002 24.5652 136.761 23.8054C138.534 22.0326 139.674 19.6266 139.674 16.8407C139.547 11.6488 135.368 7.34338 130.177 7.34338ZM130.05 21.7793C127.137 21.7793 125.238 19.6266 125.238 16.9673C125.238 14.3081 127.137 12.1554 130.05 12.1554C132.962 12.1554 134.862 14.3081 134.862 16.9673C134.862 19.6266 132.962 21.7793 130.05 21.7793Z" fill="#152330"/>
<path fill-rule="evenodd" clip-rule="evenodd" d="M138.534 7.72339H142.84L146.385 17.0941L149.931 7.72339H153.603L157.022 17.0941L160.568 7.72339H165L158.542 24.0588H155.249L151.704 14.8147L148.285 24.0588H144.992L138.534 7.72339Z" fill="#152330"/>
</g>
<defs>
<clipPath id="clip0_886_211">
<rect width="165" height="24.4703" fill="white"/>
</clipPath>
</defs>
</svg>
