<svg width="48" height="48" viewBox="0 0 48 48" fill="none" xmlns="http://www.w3.org/2000/svg">
<path d="M23.9993 41C14.3797 41 8.99808 40.5904 6.24233 40.2656C4.63905 40.0765 3.49142 39.0017 3.31882 37.3966C3.25329 36.7872 3.18615 36.0324 3.1219 35.0991C3.04338 33.9585 3.95719 33 5.10047 33H16.797C17.499 33 18.1198 33.4554 18.3307 34.125C18.5416 34.7946 19.1625 35.25 19.8645 35.25H28.1343C28.8364 35.25 29.4572 34.7946 29.6681 34.125C29.879 33.4554 30.4999 33 31.2019 33H42.8982C44.0415 33 44.9553 33.9585 44.8768 35.0991C44.8126 36.0324 44.7454 36.7872 44.6799 37.3966C44.5073 39.0017 43.3597 40.0765 41.7564 40.2656C39.0006 40.5904 33.619 41 23.9993 41Z" fill="#01070D"/>
<path d="M5.31403 33H16.797C17.499 33 18.1198 33.4554 18.3307 34.125C18.5416 34.7946 19.1625 35.25 19.8645 35.25H28.1343C28.8364 35.25 29.4572 34.7946 29.6681 34.125C29.879 33.4554 30.4999 33 31.2019 33H42.686C42.8577 30.7915 43 27.5788 43 22.9961C43 17.1053 42.7649 13.4783 42.5343 11.3379C42.3454 9.58317 41.1323 8.25406 39.393 7.95474C36.8061 7.50956 32.0726 6.99609 24 6.99609C15.9274 6.99609 11.1939 7.50956 8.607 7.95474C6.86768 8.25406 5.65465 9.58317 5.46565 11.3379C5.23513 13.4783 5 17.1053 5 22.9961C5 27.5788 5.1423 30.7915 5.31403 33Z" fill="#01070D"/>
<path d="M24.0003 41C14.3807 41 8.99905 40.5904 6.24331 40.2656C4.64002 40.0765 3.49239 39.0017 3.31979 37.3966C3.25427 36.7872 3.18712 36.0324 3.12287 35.0991C3.04435 33.9585 3.95816 33 5.10144 33H16.7979C17.4999 33 18.1208 33.4554 18.3317 34.125C18.5425 34.7946 19.1634 35.25 19.8654 35.25H28.1353C28.8373 35.25 29.4582 34.7946 29.669 34.125C29.8799 33.4554 30.5008 33 31.2028 33H42.8992C44.0424 33 44.9563 33.9585 44.8777 35.0991C44.8135 36.0324 44.7463 36.7872 44.6808 37.3966C44.5082 39.0017 43.3606 40.0765 41.7573 40.2656C39.0016 40.5904 33.6199 41 24.0003 41Z" stroke="#0141FF" stroke-linecap="round" stroke-linejoin="round"/>
<path d="M5.31372 33C5.14213 30.7916 5 27.58 5 23C5 17.1092 5.23513 13.4822 5.46565 11.3418C5.65465 9.58708 6.86768 8.25796 8.607 7.95865C11.1939 7.51347 15.9274 7 24 7C32.0726 7 36.8061 7.51347 39.393 7.95865C41.1323 8.25796 42.3454 9.58707 42.5343 11.3418C42.7649 13.4822 43 17.1092 43 23C43 27.58 42.8579 30.7916 42.6863 33" stroke="#0141FF" stroke-linecap="round" stroke-linejoin="round"/>
</svg>
