<svg width="152" height="35" viewBox="0 0 152 35" fill="none" xmlns="http://www.w3.org/2000/svg">
<g clip-path="url(#clip0_886_153)">
<path d="M59.2308 1.71632C59.3317 1.5144 59.2308 1.17786 59.1298 0.975932C58.9279 0.774009 58.6923 0.639394 58.3894 0.639394H50.8846L41.6635 31.7019L38.1298 16.5913L48.8317 2.0192C48.9327 1.91824 48.9327 1.81728 48.9327 1.68266L49.1346 1.04324C49.2356 0.841321 49.0336 0.605743 48.9327 0.605743H48.8317H41.226L33.0817 12.4856L36.6154 1.68266C36.7163 1.24516 36.5144 0.706704 35.976 0.605743C35.875 0.605743 35.774 0.605743 35.774 0.605743H28.2692L21.7404 22.7836C21.8413 18.9134 18.9471 16.0529 17.2308 14.1009C15.851 12.5865 14.976 11.4086 15.2115 10.2307C15.4135 8.51439 16.8269 7.23555 18.5433 7.23555C20.4615 7.13459 21.2356 7.67305 22.4135 8.21151C22.5144 8.31247 22.75 8.31247 22.851 8.31247C22.9519 8.31247 23.0529 8.31247 23.1875 8.21151C23.3894 8.11055 23.625 7.87497 23.726 7.67305L25.4423 1.78363L24.2644 1.24516L24.0625 1.1442H23.8942C22.5144 0.504778 20.899 0.16824 19.2837 0.302855C12.6538 0.302855 6.62981 5.0144 5.6875 10.8029C5.04808 14.875 7.60577 17.7692 9.55769 19.7884L9.75961 19.9904C11.1394 21.5048 12.1154 22.5481 11.9135 23.9615C11.5769 25.7788 9.75961 26.8557 8.04327 27.0577C6.125 27.1586 4.94712 26.6202 3.43269 25.9807C3.23077 25.8798 2.89423 25.7788 2.59135 25.8798C2.28846 25.9807 2.05288 26.2163 1.95192 26.5192L0.235577 32.2067L0 32.9807C0 32.9807 3.33173 34.6971 7.06731 34.6971C12.7548 34.6971 17.5673 32.5432 20.4615 27.2932L18.7452 33.0817C18.6442 33.2836 18.7452 33.6202 18.8462 33.8221C19.0481 34.024 19.2837 34.1586 19.5865 34.1586H27.0913L29.0096 27.7307L31.2644 24.399L32.9808 33.3846C33.0817 33.8221 33.4183 34.125 33.8221 34.125H49.6731L59.2308 1.71632Z" fill="#525C65"/>
<path d="M79.3555 3.09612C77.8411 1.48074 75.8219 0.538428 73.5671 0.639389H61.0478L60.5094 2.35574C60.5094 2.55766 60.5094 2.69228 60.6103 2.8942L60.9469 3.43266C61.2834 3.97112 61.3844 4.61055 61.1488 5.24997L53.0046 32.7788C52.9036 33.2163 53.1055 33.7548 53.543 33.8557C53.644 33.8557 53.644 33.8557 53.7449 33.8557H61.0142L63.269 26.149H66.6007C74.543 26.25 78.4805 20.6971 80.2978 14.673C81.0382 12.2163 81.3747 10.399 81.3747 9.22112C81.5094 6.73073 80.8699 4.81247 79.3555 3.09612ZM73.3651 10.1634C73.2642 11.7788 72.7257 13.6971 71.9853 15.3125C71.0094 17.3317 70.168 18.9471 67.7113 19.1827H65.5574L68.8892 7.84131H71.6824C72.1199 7.84131 72.4228 7.94228 72.7594 8.27882C73.1632 8.68266 73.3651 9.32208 73.3651 10.1634Z" fill="#525C65"/>
<path d="M89.8558 14.5721H84.9423L79.3894 33.4182C79.2885 33.6202 79.4904 33.8557 79.726 33.9567H79.8269H84.4375C91.8414 33.9567 94.3991 24.7355 94.601 20.899C94.7693 16.5913 92.4135 14.5721 89.8558 14.5721ZM90.7308 20.899C90.6298 23.2548 88.8125 30.6586 85.2789 30.6586H84.101L87.8366 17.7019H88.9135C89.9568 17.7692 90.8318 18.7452 90.7308 20.899Z" fill="#525C65"/>
<path d="M100.154 1.37978C100.154 1.27882 100.154 1.04324 99.9519 1.04324C99.9519 1.04324 99.9519 1.04324 99.8509 1.04324H98.0336L96.7548 5.41824H94.5673L95.7452 1.34612C95.7452 1.24516 95.7452 1.00958 95.5432 1.00958C95.5432 1.00958 95.5432 1.00958 95.4423 1.00958H93.625L90.5288 11.5096C90.5288 11.6105 90.5288 11.8461 90.7307 11.8461C90.7307 11.8461 90.7307 11.8461 90.8317 11.8461H92.649L94.0288 7.13458H96.1826L94.9038 11.5096C94.9038 11.6105 94.9038 11.8461 95.1057 11.8461C95.1057 11.8461 95.1057 11.8461 95.2067 11.8461H97.024L100.154 1.37978Z" fill="#525C65"/>
<path d="M106.582 1.0769H101.971V1.27883L98.9761 11.6779C98.9761 11.7788 98.9761 12.0144 99.178 12.0144C99.178 12.0144 99.178 12.0144 99.279 12.0144H103.89L104.327 10.5C104.327 10.399 104.327 10.2981 104.226 10.1634H104.125H101.635L102.476 7.37017H104.731L105.168 5.85575C105.168 5.75479 105.168 5.51921 104.966 5.51921C104.966 5.51921 104.966 5.51921 104.865 5.51921H102.947L103.688 2.96152H106.481L106.918 1.4471C106.784 1.17787 106.784 1.0769 106.582 1.0769Z" fill="#525C65"/>
<path d="M92.2116 2.89424L92.6491 1.37981C92.6491 1.27885 92.6491 1.04327 92.4472 1.04327C92.4472 1.04327 92.4472 1.04327 92.3462 1.04327H87.0962L86.6587 2.5577C86.6587 2.65866 86.6587 2.89424 86.8606 2.89424C86.8606 2.89424 86.8606 2.89424 86.9616 2.89424H88.3414L85.7837 11.6779C85.7837 11.7788 85.7837 12.0144 85.9856 12.0144C85.9856 12.0144 85.9856 12.0144 86.0866 12.0144H87.9039L90.5962 2.89424H92.2116Z" fill="#525C65"/>
<path d="M102.375 14.5721H99.1781L93.6252 33.4182C93.5243 33.6202 93.6252 33.8557 93.9618 33.9567H94.0627H97.2599L102.813 15.1105C102.914 14.9086 102.712 14.673 102.476 14.5721C102.51 14.5721 102.375 14.5721 102.375 14.5721Z" fill="#525C65"/>
<path d="M128.726 15.1105C128.827 14.9086 128.726 14.673 128.524 14.5721H128.423H125.192L122.937 22.3798H119.067L121.221 15.1105C121.322 14.9086 121.221 14.673 120.884 14.5721H120.817H117.62L112.067 33.4182C111.966 33.6202 112.067 33.8557 112.404 33.9567H112.505H115.702L118.158 25.6105H122.029L119.774 33.4182C119.673 33.6202 119.774 33.8557 119.976 33.9567H120.077H123.274L128.726 15.1105Z" fill="#525C65"/>
<path d="M139.966 14.5721H131.721L126.168 33.4182C126.067 33.6202 126.168 33.8557 126.505 33.9567H126.606H134.851L135.591 31.2644C135.692 31.0625 135.591 30.8269 135.255 30.7259H135.154H130.779L132.293 25.6778H136.163L137.005 22.9855C137.106 22.7836 137.005 22.548 136.668 22.4471H136.567H133.135L134.514 17.7355H139.428L140.168 15.0432C140.303 14.875 140.202 14.673 139.966 14.5721Z" fill="#525C65"/>
<path d="M107.86 19.8221C108.062 18.5433 109.139 17.5673 110.418 17.4663C111.159 17.4663 111.933 17.5673 112.572 17.9038C112.908 18.0048 113.211 17.9038 113.413 17.5673C113.413 17.5673 113.413 17.5673 113.413 17.4663L114.154 14.9087C113.178 14.4712 112.134 14.2692 110.957 14.2692C107.524 14.2692 104.091 16.8269 103.553 20.2596C103.216 22.6154 104.63 24.2308 105.707 25.5096C106.548 26.4856 107.221 27.3269 107.086 28.4038C106.75 30.0192 105.572 30.7596 104.293 30.8606C103.317 30.9615 102.779 30.8606 101.735 30.4231C101.399 30.3221 101.096 30.3221 100.995 30.625C100.995 30.625 100.995 30.726 100.894 30.726L100.053 33.6202C101.231 34.0577 102.509 34.2596 103.788 34.2596C107.524 34.2596 110.755 31.4663 111.394 27.9327C111.731 25.5769 110.317 23.8606 109.24 22.5817C108.264 21.7404 107.625 20.899 107.86 19.8221Z" fill="#525C65"/>
<path d="M145.115 19.8221C145.317 18.5433 146.394 17.5673 147.673 17.4663C148.413 17.4663 149.187 17.5673 149.827 17.9038C150.163 18.0048 150.466 17.9038 150.668 17.5673C150.668 17.5673 150.668 17.5673 150.668 17.4663L151.409 14.9087C150.433 14.4712 149.389 14.2692 148.211 14.2692C144.779 14.2692 141.346 16.8269 140.808 20.2596C140.471 22.6154 141.885 24.2308 142.961 25.5096C143.803 26.4856 144.476 27.3269 144.341 28.4038C144.005 30.0192 142.827 30.7596 141.548 30.8606C140.572 30.9615 140.034 30.8606 138.99 30.4231C138.654 30.3221 138.351 30.3221 138.25 30.625C138.25 30.625 138.25 30.726 138.149 30.726L137.308 33.6202C138.486 34.0577 139.764 34.2596 141.043 34.2596C144.779 34.2596 148.01 31.4663 148.649 27.9327C148.986 25.5769 147.572 23.8606 146.495 22.5817C145.654 21.7404 144.913 20.899 145.115 19.8221Z" fill="#525C65"/>
</g>
<defs>
<clipPath id="clip0_886_153">
<rect width="151.442" height="35" fill="white"/>
</clipPath>
</defs>
</svg>
