<svg width="165" height="33" viewBox="0 0 165 33" fill="none" xmlns="http://www.w3.org/2000/svg">
<g clip-path="url(#clip0_886_147)">
<path d="M34.7933 1.52789C35.4097 2.37713 35.3479 3.46807 35.6544 4.43596L35.1615 4.86196C27.8267 5.0413 21.29 5.40716 13.9535 5.95125C14.3234 7.34514 16.2972 8.37593 15.7403 10.1346C12.1655 17.3457 9.20594 24.8604 6.06169 32.3171C5.56993 32.7403 4.89011 32.4953 4.45898 32.1317C3.53384 31.1014 1.25298 30.4365 1.99231 28.7385C5.26118 21.1626 8.52892 13.648 12.4754 6.3778C8.34423 6.49865 4.45898 7.04385 0.266088 7.34569L0.0825195 7.22705L1.5623 3.95312C12.4136 2.37713 23.3851 1.40704 34.7933 1.52789Z" fill="#525C65"/>
<path d="M26.4061 9.77037C26.6536 10.5578 26.5919 11.6499 26.1608 12.3766C25.5444 13.2258 24.6192 13.8919 23.5706 13.9526C22.4001 14.133 21.2897 13.5878 20.7974 12.4991C20.4263 11.5897 20.181 10.256 20.7357 9.28588C21.1039 8.49843 22.0296 8.07243 22.8313 7.83129C24.3099 7.77059 25.7897 8.31578 26.4061 9.77037ZM19.81 15.0424C20.6122 16.1339 22.5837 17.0422 22.2154 18.5574C20.4875 21.8303 18.7619 25.0407 17.5909 28.494C19.5624 27.5272 21.4132 25.6488 23.1406 24.01C25.8514 21.284 28.3799 18.4979 30.7848 15.6505C32.017 15.9518 33.1274 17.0422 33.8678 17.8925C32.5121 20.6185 30.9712 23.345 29.7367 26.1333L39.4164 16.7999C40.5257 17.4676 42.2531 18.4979 42.3142 19.8305C40.7115 22.0102 39.4793 24.3758 38.4919 26.7409L48.1076 18.3146C49.3421 18.1932 50.3267 19.7085 51.1289 20.6803C49.4038 23.6485 46.8136 26.3132 47 29.9519C47.3065 30.7383 48.1694 30.7383 48.7262 30.6781C48.294 31.5235 47.43 32.2552 46.5049 32.4362C45.3344 32.7402 44.3475 32.2558 43.4218 31.7095C41.0203 28.6171 44.224 25.587 45.5202 22.8605C42.0667 25.0407 39.0454 28.5553 36.2728 31.4672C35.0383 30.9215 34.052 29.8907 33.0039 29.1639L33.0656 28.1949C34.3596 26.0737 35.5323 23.8913 36.888 21.8303L36.517 21.8915C33.3721 24.7367 30.1072 27.7077 27.4542 31.0423C26.0984 31.284 25.1121 30.1942 24.0657 29.5861L23.8793 29.2252C24.9257 26.7409 26.2848 24.3758 27.2695 21.9506C23.8182 25.1025 20.5493 28.7385 16.6652 30.8591C15.1854 31.0423 14.446 29.4652 13.3345 28.6794L13.0903 28.1949C14.7548 23.6491 16.3581 18.9823 19.2548 14.9806L19.81 15.0424ZM123.388 21.5875C121.414 23.6486 119.503 25.9524 120.429 28.8599C120.735 29.7097 121.598 30.3134 122.525 30.2533C125.483 29.8306 126.841 26.5561 127.454 24.1932C126.651 24.3141 125.975 24.0718 125.299 23.8296C124.371 23.4069 123.758 22.3761 123.388 21.5875ZM86.7637 20.1914C84.9174 21.5875 83.4971 23.4069 83.0671 25.4685C82.8807 26.5566 83.0671 27.5869 83.8058 28.3754C84.2987 28.9217 85.038 29.1022 85.8402 29.0431C88.802 28.4946 90.5249 25.2858 91.0206 22.6785L89.7861 22.6194C88.4299 22.7392 87.1982 21.2244 86.7637 20.1914ZM67.0994 18.1348C69.3185 19.4647 70.4878 21.8303 71.413 23.8296C72.2769 21.7685 73.1403 19.5877 73.8185 17.5267C71.5988 17.7094 69.1939 17.7094 67.0994 18.1348ZM71.9059 2.92122L66.1108 16.0732C68.884 16.1941 71.8464 15.89 74.743 15.7692C76.9004 11.2239 78.8102 6.55714 81.4004 2.13378C82.6943 1.16589 83.6195 3.10387 84.6075 3.70921L84.791 4.19592C82.8801 7.95324 80.9703 11.71 79.3047 15.586C83.9894 16.1334 91.02 13.8913 93.3009 18.92C93.4844 19.2859 93.238 19.7676 93.4845 20.0717C96.6904 18.3765 99.22 15.1627 101.131 12.376C102.487 12.738 101.376 13.952 101.81 14.9801C101.87 15.7079 102.487 16.374 103.103 16.6786C103.656 16.8612 104.521 16.5572 104.705 17.2221C103.596 19.953 101.747 22.3755 100.636 25.0402C100.083 26.3751 99.0948 27.7662 99.7112 29.2865C100.206 29.9514 101.131 29.7092 101.748 29.4642C107.112 25.5242 108.653 19.4636 111.49 14.1926C111.55 14.074 111.364 14.0133 111.364 13.9515L107.728 14.1319C107.479 13.4659 108.158 12.9207 108.653 12.498L112.352 12.1321C113.581 9.89011 114.446 7.52613 115.865 5.2841C117.162 5.7101 118.454 7.10344 118.824 8.37538C118.514 9.58882 117.592 10.6174 117.343 11.7095C121.476 11.5881 125.791 11.1014 130.106 11.284C130.537 11.8899 130.6 12.6166 130.723 13.2849C125.791 13.4653 121.105 13.5867 116.233 13.7694C113.769 18.6177 111.426 23.5862 109.517 28.6784C109.391 29.2865 109.517 30.0127 110.256 30.1931C112.537 30.0127 114.383 28.1939 115.801 26.3745C117.161 22.5554 119.442 17.5874 124.126 16.5566C126.037 16.2548 127.7 16.9225 128.995 18.2518C129.983 19.404 130.536 20.6792 130.415 22.2536C133.126 21.465 135.284 19.3449 137.504 17.4042C138.799 17.6487 139.478 19.1021 140.277 19.9525L140.031 21.0401C138.92 22.7982 137.997 24.7356 137.135 26.6162C140.278 24.0084 143.67 20.8591 146.753 18.1332C147.925 18.5564 148.85 19.8907 148.85 21.0401C147.245 23.5862 145.95 26.2509 145.395 29.2241C145.395 29.9509 145.149 30.7372 145.888 31.2239L146.632 31.0413C150.821 26.0109 153.658 20.3139 158.712 15.7681C159.577 16.8607 160.684 18.3142 160.442 19.7676C156.924 23.7104 163.583 27.7662 159.205 31.4662C157.664 32.9814 155.32 32.9814 153.349 32.3739C152.609 32.0721 151.746 31.768 151.314 31.0418C151.686 30.0701 152.116 28.983 152.979 28.3153C153.165 29.4647 153.227 30.8586 154.52 31.4667C155.32 31.7686 156.185 31.3459 156.557 30.6169C157.54 28.0112 154.706 26.4959 155.26 23.77C155.382 22.6183 155.878 21.4661 156.122 20.4359C152.795 24.01 150.512 28.0118 147.738 31.8281C146.813 32.7403 145.58 33.0394 144.346 32.8611C143.3 32.7403 142.374 32.1322 141.944 31.225C141.019 28.6795 141.635 25.5871 143.177 23.3451L142.684 23.4665C139.784 26.1952 136.825 29.0426 134.174 31.8281C132.942 31.6477 131.956 30.437 131.215 29.4653C132.263 26.5566 133.805 23.8914 135.407 21.2244C133.745 22.072 131.957 22.982 130.106 23.6491C129.058 27.4682 126.159 31.8281 121.907 32.7999C120.244 33.2253 118.145 32.7999 116.913 31.2846C116.174 30.4983 115.988 29.4653 115.558 28.5559C113.214 30.7979 110.317 32.8617 107.048 31.5865C105.633 30.7389 105.507 29.1022 105.633 27.6487C103.782 30.133 101.193 31.8281 98.049 31.6477C96.8774 31.5241 95.5817 31.1632 95.0894 29.9525C94.2872 25.5258 97.3703 21.9512 99.7746 18.4979C99.5911 18.0112 99.4676 17.5267 99.2211 17.104C97.3102 18.7385 95.4599 20.7405 93.2391 21.7685C92.6256 26.1334 89.7266 31.2846 84.9185 32.3176C83.2518 32.375 81.7731 32.0732 80.5386 31.102C78.5671 29.4653 78.1966 26.7415 78.8742 24.3141C79.6764 21.5881 81.7108 19.042 84.1797 17.2845L83.9911 17.104L78.5059 17.2232C76.1622 22.1344 73.8201 27.0411 72.031 32.1328C71.8486 32.5582 71.3529 32.5582 71.0464 32.4374C67.8404 31.587 70.3666 28.4378 69.3819 26.3767C68.8868 23.6502 67.5311 20.9215 64.8197 19.4658L64.5721 19.5894C62.7229 23.7716 60.9361 28.0725 58.9623 32.1333H58.4694C57.2961 31.0435 54.8946 29.8913 55.7552 27.9516L60.0109 18.3782C59.4563 18.0123 57.9777 18.4394 58.2219 17.2238C58.9623 16.257 60.6885 17.1046 61.1202 15.9529L68.0868 0.317692C68.4579 -0.0470593 68.9497 -0.0470593 69.3213 0.317692C70.1808 1.16583 71.4747 1.71103 71.9059 2.92116V2.92122Z" fill="#525C65"/>
<path fill-rule="evenodd" clip-rule="evenodd" d="M161.842 31.225C161.842 30.4745 162.462 29.8642 163.231 29.8642C163.994 29.8642 164.618 30.4739 164.618 31.225C164.618 31.9799 163.995 32.5907 163.231 32.5907C162.462 32.5907 161.842 31.9799 161.842 31.225ZM161.542 31.225C161.542 32.1415 162.298 32.8854 163.231 32.8854C164.159 32.8854 164.918 32.1415 164.918 31.225C164.918 30.3134 164.159 29.5695 163.231 29.5695C162.298 29.5695 161.542 30.3134 161.542 31.225ZM162.936 30.5622H163.192C163.41 30.5578 163.651 30.5722 163.651 30.8266C163.651 31.0804 163.409 31.092 163.192 31.092H162.936V30.5622ZM162.581 32.1631H162.936V31.3867H163.192L163.671 32.1631H164.045L163.54 31.3602C163.806 31.3293 164.004 31.1703 164.004 30.8404C164.004 30.4745 163.786 30.2681 163.323 30.2681H162.581V32.1631H162.581Z" fill="#525C65"/>
</g>
<defs>
<clipPath id="clip0_886_147">
<rect width="165" height="33" fill="white"/>
</clipPath>
</defs>
</svg>
