<svg width="120" height="40" viewBox="0 0 120 40" fill="none" xmlns="http://www.w3.org/2000/svg">
<path d="M75.6724 38.6557C74.5904 38.6557 73.5084 38.2295 72.6888 37.4098L55.6724 20L72.6888 2.59014C73.5084 1.73768 74.5904 1.34424 75.7051 1.34424C78.0986 1.34424 79.8691 3.27866 79.8691 5.50817C79.8691 6.55735 79.4756 7.63932 78.6888 8.45899L67.3773 20L78.6888 31.541C79.4756 32.3606 79.8691 33.4426 79.8691 34.4918C79.8363 36.7213 78.0658 38.6557 75.6724 38.6557Z" fill="#525C65"/>
<path d="M50.8856 38.6557C48.5905 38.6557 46.7217 36.7868 46.7217 34.4918V5.54095C46.7217 3.24587 48.5905 1.37701 50.8856 1.37701C53.1807 1.37701 55.0495 3.24587 55.0495 5.54095V34.4918C55.0823 36.7868 53.2135 38.6557 50.8856 38.6557Z" fill="#525C65"/>
<path d="M103.246 38.6229C92.4591 38.6229 84.1641 31.3442 84.1641 20C84.1641 9.80326 91.2788 1.34424 103.246 1.34424C106.656 1.34424 110.295 2.22948 113.213 3.96719C114.525 4.75407 115.246 6.13112 115.246 7.57375C115.246 9.73768 113.508 11.7377 111.082 11.7377C110.328 11.7377 109.607 11.541 108.918 11.1475C107.344 10.2623 105.41 9.57375 103.312 9.57375C96.7542 9.57375 92.6887 14.0655 92.6887 20C92.6887 26.3278 97.1477 30.3934 103.312 30.3934C105.508 30.3934 108.164 29.5737 109.836 28.4262V24.6229H107.049C104.754 24.6229 102.885 22.7541 102.885 20.459C102.885 18.1639 104.754 16.2951 107.049 16.2951H114C116.295 16.2951 118.164 18.1639 118.164 20.459V30.0655C118.164 31.3115 117.639 32.5246 116.754 33.377C113.312 36.7541 108.459 38.6229 103.246 38.6229Z" fill="#525C65"/>
<path d="M10.328 5.77047C10.328 8.1967 8.36083 10.1967 5.90182 10.1967C3.47559 10.1967 1.47559 8.22948 1.47559 5.77047C1.47559 3.34424 3.4428 1.34424 5.90182 1.34424C8.32804 1.34424 10.328 3.34424 10.328 5.77047Z" fill="#525C65"/>
<path d="M37.3446 5.77047C37.3446 8.1967 35.3774 10.1967 32.9183 10.1967C30.4921 10.1967 28.5249 8.1967 28.5249 5.77047C28.5249 3.34424 30.4921 1.34424 32.9511 1.34424C35.3774 1.34424 37.3446 3.34424 37.3446 5.77047Z" fill="#525C65"/>
<path d="M19.41 38.6557C9.6395 38.6557 1.70508 30.7213 1.70508 20.9508V18.1311C1.70508 15.836 3.57393 13.9672 5.86901 13.9672C8.16409 13.9672 10.0329 15.836 10.0329 18.1311V21.0491C10.0329 26.1967 13.0821 30.3934 19.3772 30.3934C25.2461 30.3934 28.7215 26.1967 28.7215 21.0491V18.1311C28.7215 15.836 30.5903 13.9672 32.8854 13.9672C35.1805 13.9672 37.0493 15.836 37.0493 18.1311V20.9508C37.1149 30.7213 29.1805 38.6557 19.41 38.6557Z" fill="#525C65"/>
</svg>
