<svg width="125" height="50" viewBox="0 0 125 50" fill="none" xmlns="http://www.w3.org/2000/svg">
<g clip-path="url(#clip0_886_180)">
<path d="M63.8578 -4.04008e-06C68.3522 -0.18727 72.8466 0.561794 77.06 1.96629C83.3335 4.30711 89.0451 8.33333 93.1649 13.5768C94.9439 15.9176 96.5357 18.4457 97.7529 21.161C97.9402 21.6292 98.1275 22.0974 98.0338 22.6592C97.9402 23.5019 97.1911 24.1573 96.3484 24.2509C95.5057 24.3446 94.5694 23.8764 94.2885 23.0337C91.9477 17.4157 87.8278 12.5468 82.7717 9.17603C79.6818 7.1161 76.1237 5.52434 72.472 4.68164C67.6967 3.55805 62.7342 3.55805 58.0526 4.68164C51.1237 6.2734 44.9439 10.1124 40.6368 15.5431C38.7642 17.7903 37.266 20.3183 36.1424 23.0337C35.8615 23.6891 35.2997 24.1573 34.6443 24.2509C33.9889 24.3446 33.3334 24.1573 32.8653 23.6891C32.3035 23.1273 32.1162 22.2846 32.3971 21.6292C35.5806 14.0449 41.3859 7.77153 48.5956 4.02621C53.2773 1.59176 58.6143 0.187262 63.8578 -4.04008e-06Z" fill="#525C65"/>
<path d="M57.959 23.1274C57.959 22.7528 58.3335 22.4719 58.708 22.4719C59.1762 22.4719 59.6444 22.4719 60.1125 22.4719C60.4871 22.4719 60.8616 22.6592 60.8616 23.0337C60.8616 27.3408 60.8616 31.7416 60.8616 36.1423C62.6406 34.176 64.4197 32.2098 66.1987 30.2435C66.5732 29.8689 66.8541 29.4008 67.3223 29.3071C68.0713 29.3071 68.8204 29.3071 69.4758 29.3071C69.7567 29.3071 70.0376 29.4944 69.944 29.8689C69.8504 30.0562 69.6631 30.2435 69.4758 30.4307C67.6032 32.3034 65.6369 34.2697 63.7642 36.1423C65.6369 38.2023 67.4159 40.3558 69.2886 42.5094C69.5695 42.7903 69.8504 43.0712 70.0376 43.3521C70.2249 43.633 69.944 43.9139 69.6631 43.9139C69.1013 43.9139 68.4459 43.9139 67.7904 43.9139C67.5095 43.9139 67.135 43.9139 66.8541 43.8202C66.5732 43.633 66.3859 43.3521 66.105 43.0712C64.326 40.824 62.547 38.5768 60.768 36.4232C60.768 38.5768 60.768 40.824 60.768 42.9775C60.768 43.2584 60.768 43.5393 60.5807 43.7266C60.2062 44.1011 59.738 43.9139 59.2698 44.0075C58.8953 44.0075 58.4271 44.1011 58.1462 43.8202C57.959 43.7266 57.959 43.4457 57.959 43.2584C57.959 36.4232 57.959 29.7753 57.959 23.1274Z" fill="#525C65"/>
<path d="M49.9064 29.2135C50.7491 28.9326 51.7791 28.8389 52.6218 29.2135C52.9027 29.4007 53.2772 29.6816 53.1836 30.0562C53.09 30.5243 52.9027 30.9925 52.7154 31.4606C52.6218 31.8352 52.2473 31.9288 51.8727 31.8352C51.1237 31.7415 50.4682 31.4606 49.7192 31.4606C49.1574 31.4606 48.6892 31.7415 48.3147 32.1161C47.7529 32.6779 47.472 33.4269 47.2847 34.2696C47.1911 34.8314 47.1911 35.3932 47.1911 35.955C47.1911 38.3895 47.1911 40.7303 47.1911 43.1648C47.1911 43.5393 46.8165 43.8202 46.442 43.8202C45.9738 43.8202 45.5057 43.8202 44.9439 43.8202C44.5694 43.8202 44.1948 43.5393 44.1948 43.1648C44.1948 38.6704 44.1948 34.2696 44.1948 29.8689C44.1948 29.4007 44.663 29.2135 45.0375 29.2135C45.5057 29.2135 46.1611 29.0262 46.5356 29.588C46.8165 30.1498 46.9102 30.7116 47.0974 31.367C47.9401 30.4307 48.7828 29.588 49.9064 29.2135Z" fill="#525C65"/>
<path d="M0 29.588C0.093633 29.4008 0.280899 29.3071 0.561798 29.3071C1.21723 29.3071 1.87266 29.3071 2.52809 29.3071C2.90262 29.3071 3.08989 29.588 3.18352 29.9626C3.83895 32.5843 4.49438 35.2996 5.14981 37.9214C5.33708 38.7641 5.61798 39.5131 5.71161 40.3558C5.80524 41.1049 5.89888 41.8539 5.99251 42.603C6.17978 41.573 6.27341 40.4495 6.55431 39.4195C7.397 36.236 8.2397 33.0525 9.0824 29.8689C9.17603 29.4944 9.45693 29.2135 9.83146 29.2135C10.5805 29.2135 11.3296 29.2135 12.0787 29.2135C12.4532 29.2135 12.9213 29.4008 13.015 29.8689C13.6704 32.2098 14.2322 34.4569 14.8876 36.7978C15.2622 38.2959 15.7303 39.794 16.0112 41.2921C16.1049 41.7603 16.1049 42.1348 16.1985 42.603C16.4794 40.1686 17.0412 37.8277 17.603 35.4869C18.0712 33.6143 18.4457 31.7416 18.8202 29.8689C18.9139 29.4944 19.2884 29.3071 19.6629 29.3071C20.2247 29.3071 20.8801 29.3071 21.4419 29.3071C21.8165 29.3071 22.0037 29.6817 21.9101 30.0562C20.6929 34.4569 19.4757 38.9513 18.3521 43.3521C18.2584 43.7266 17.9775 44.0075 17.603 44.0075C16.6667 44.0075 15.7303 44.0075 14.794 44.0075C14.4195 44.0075 14.1386 43.8202 14.0449 43.5393C13.2022 40.4495 12.3596 37.4532 11.6105 34.3633C11.3296 33.3334 11.236 32.2098 11.0487 31.0862C10.8614 32.0225 10.8614 33.0525 10.5805 33.9888C9.73783 37.0787 8.89513 40.2622 8.05243 43.4457C7.9588 43.9139 7.397 44.1011 6.92884 44.0075C6.08614 44.0075 5.24345 44.0075 4.30712 44.0075C4.02622 44.0075 3.74532 43.7266 3.74532 43.4457C2.43446 38.9513 1.21723 34.5506 0 30.1498C0 29.9626 0 29.7753 0 29.588Z" fill="#525C65"/>
<path d="M108.708 29.3071C109.363 29.3071 109.925 29.3071 110.581 29.3071C110.955 29.3071 111.33 29.588 111.423 29.9626C112.547 32.7715 113.577 35.6742 114.701 38.4832C114.888 39.045 115.075 39.7004 115.169 40.2622C115.637 38.5768 116.199 36.8914 116.76 35.2996C117.322 33.5206 117.884 31.7416 118.539 29.8689C118.633 29.588 118.914 29.3071 119.289 29.3071C119.757 29.3071 120.319 29.3071 120.88 29.3071C121.161 29.3071 121.536 29.3071 121.723 29.4944C121.91 29.588 121.817 29.8689 121.817 29.9626C120.038 34.9251 118.352 39.8877 116.573 44.8502C116.292 45.6929 116.011 46.5356 115.543 47.2847C114.888 48.4083 113.764 49.251 112.453 49.6255C111.985 49.7191 111.611 50.0936 111.142 49.9064C110.768 49.8127 110.674 49.4382 110.487 49.2509C110.393 49.0637 110.113 48.7828 110.206 48.5019C110.206 48.221 110.487 48.0337 110.768 47.9401C111.33 47.7528 111.798 47.5656 112.266 47.191C113.296 46.3483 113.951 45.0375 114.139 43.7266C113.951 43.1648 113.671 42.603 113.483 42.0412C111.798 38.2023 110.206 34.3633 108.521 30.5244C108.427 30.2435 108.24 30.0562 108.24 29.7753C108.053 29.4008 108.427 29.3071 108.708 29.3071Z" fill="#525C65"/>
<path d="M31.4604 31.1798C30.5241 31.367 29.775 31.9288 29.3069 32.6779C28.5578 33.9888 28.4642 35.5805 28.4642 36.985C28.5578 38.2959 28.7451 39.7004 29.5878 40.824C30.2432 41.6667 31.2732 42.0412 32.3031 42.0412C33.2395 42.0412 34.2694 41.7603 34.9249 41.0112C35.7676 40.0749 36.0484 38.764 36.1421 37.6405C36.2357 36.4232 36.2357 35.206 35.9548 34.0824C35.6739 33.1461 35.2058 32.1161 34.2694 31.5543C33.4267 31.0861 32.3968 30.9925 31.4604 31.1798ZM31.835 29.0262C33.4267 28.9326 35.2058 29.3071 36.5166 30.2434C37.7338 31.0861 38.5765 32.397 38.9511 33.8015C39.4192 35.4869 39.4192 37.2659 38.9511 39.0449C38.5765 40.6367 37.6402 42.1348 36.2357 42.9775C34.7376 43.9139 32.9586 44.1948 31.1795 44.0075C29.6814 43.8202 28.2769 43.1648 27.247 42.1348C26.0297 40.9176 25.4679 39.1386 25.3743 37.4532C25.187 35.5805 25.4679 33.5206 26.5915 31.9288C27.3406 30.7116 28.6514 29.7753 29.9623 29.4008C30.6177 29.2135 31.2732 29.1199 31.835 29.0262Z" fill="#525C65"/>
<path d="M80.056 31.0862C79.1197 31.1798 78.277 31.648 77.9024 32.4907C77.1534 33.9888 77.0597 35.7678 77.1534 37.4532C77.247 38.5768 77.3406 39.7004 77.8088 40.6367C78.1833 41.2922 78.7451 41.8539 79.4942 41.9476C80.6178 42.2285 81.9286 41.9476 82.7713 41.1049C83.5204 40.2622 83.8013 39.045 83.8949 37.9214C83.9886 36.6105 83.9886 35.2996 83.7077 34.0824C83.5204 33.2397 83.1459 32.397 82.4904 31.8352C81.835 31.1798 80.8987 30.9925 80.056 31.0862ZM83.8949 22.9401C83.8949 22.5656 84.2695 22.3783 84.5504 22.3783C85.0185 22.3783 85.4867 22.3783 86.0485 22.3783C86.423 22.3783 86.7976 22.6592 86.7976 23.0337C86.7976 29.7753 86.7976 36.4232 86.7976 43.1648C86.7976 43.5393 86.5167 43.8202 86.1421 43.8202C85.7676 43.8202 85.3931 43.8202 85.0185 43.8202C84.7376 43.8202 84.4567 43.633 84.3631 43.3521C84.1758 42.8839 84.1758 42.4157 83.9886 42.0412C83.4268 42.7903 82.7713 43.4457 81.9286 43.7266C80.7114 44.1948 79.3069 44.1948 78.0897 43.9139C76.7788 43.633 75.7489 42.6966 75.0934 41.5731C74.1571 39.794 74.0635 37.7341 74.0635 35.8614C74.0635 34.176 74.438 32.397 75.468 31.0862C76.3107 29.9626 77.6215 29.3071 79.026 29.1199C80.2433 28.9326 81.6478 29.1199 82.6777 29.8689C83.1459 30.2435 83.5204 30.7116 83.8949 31.1798C83.8949 28.4644 83.8949 25.6554 83.8949 22.9401Z" fill="#525C65"/>
<path d="M97.4719 31.1798C97.0037 31.2734 96.6292 31.4607 96.2546 31.7416C95.5056 32.3034 95.131 33.2397 94.9438 34.0824C94.6629 35.4869 94.6629 36.8914 94.8501 38.2959C94.9438 39.3258 95.2247 40.4494 95.9737 41.1985C96.6292 41.8539 97.4719 42.0412 98.4082 42.0412C99.3445 42.0412 100.281 41.7603 100.936 41.0112C101.685 40.0749 101.873 38.8577 101.966 37.7341C102.06 36.4232 102.06 35.0187 101.685 33.7079C101.404 32.8652 101.03 32.1161 100.281 31.6479C99.4382 31.0861 98.4082 30.9925 97.4719 31.1798ZM96.2546 29.3071C97.5655 28.9326 98.97 28.9326 100.281 29.2135C101.498 29.4944 102.622 30.1498 103.371 31.1798C104.12 32.2097 104.588 33.5206 104.682 34.7378C104.869 35.7678 104.775 36.7041 104.775 37.7341C104.775 39.5131 104.775 41.2921 104.775 43.0711C104.775 43.2584 104.682 43.4457 104.494 43.6329C104.213 43.8202 103.839 43.7266 103.464 43.7266C103.09 43.7266 102.622 43.7266 102.434 43.352C102.247 42.8839 102.154 42.4157 102.06 41.8539C101.592 42.5094 101.03 43.0712 100.281 43.4457C99.1573 44.0075 97.8464 44.0075 96.7228 43.7266C95.2247 43.4457 93.9138 42.603 93.0711 41.2921C92.1348 39.8876 91.7603 38.015 91.7603 36.3296C91.7603 34.6442 92.0412 32.8652 92.9775 31.4607C93.7265 30.5243 94.9438 29.6816 96.2546 29.3071Z" fill="#525C65"/>
<path d="M122.285 40.3558C121.536 40.6367 121.068 41.4794 121.255 42.2285C121.442 43.1648 122.472 43.7266 123.408 43.4457C124.251 43.1648 124.719 42.3221 124.438 41.4794C124.251 40.5431 123.127 39.9813 122.285 40.3558ZM122.378 39.9813C122.847 39.8877 123.315 39.8877 123.689 40.0749C124.345 40.3558 124.907 41.1049 124.813 41.9476C124.907 42.8839 124.064 43.7266 123.221 43.8203C122.191 44.0075 121.161 43.3521 120.974 42.3221C120.693 41.2922 121.348 40.1686 122.378 39.9813Z" fill="#525C65"/>
<path d="M122.566 41.1048C122.566 41.2921 122.566 41.4794 122.566 41.7603C122.753 41.7603 122.94 41.7603 123.127 41.6666C123.315 41.573 123.315 41.3857 123.221 41.1985C123.128 41.0112 122.847 41.1048 122.566 41.1048ZM122.004 40.7303C122.566 40.7303 123.127 40.6367 123.596 40.9176C123.97 41.1985 123.783 41.8539 123.315 41.9475C123.408 42.3221 123.596 42.603 123.783 42.8839C123.596 42.8839 123.408 42.8839 123.221 42.8839C123.034 42.603 122.94 42.3221 122.847 42.0412C122.753 42.0412 122.659 42.0412 122.566 42.0412C122.566 42.3221 122.566 42.603 122.566 42.8839C122.378 42.8839 122.191 42.8839 122.004 42.8839C122.004 42.1348 122.004 41.4794 122.004 40.7303Z" fill="#525C65"/>
</g>
<defs>
<clipPath id="clip0_886_180">
<rect width="124.813" height="50" fill="white"/>
</clipPath>
</defs>
</svg>
